<svg width="380px" height="288px" viewBox="0 0 380 288" version="1.1" xmlns="http://www.w3.org/2000/svg" xmlns:xlink="http://www.w3.org/1999/xlink">
    <!-- Generator: Sketch 41.2 (35397) - http://www.bohemiancoding.com/sketch -->
    <title>certificate</title>
    <desc>Created with Sketch.</desc>
    <defs>
        <path d="M120.150039,45.8727273 L119.741773,45.8727273 C115.659117,43.8954545 113.617789,38.7545455 115.250851,34.4045455 C117.700445,28.4727273 113.209523,22.1454545 106.677274,22.1454545 L106.269008,22.1454545 C101.369821,22.1454545 97.6954302,18.5863636 96.8788989,14.2363636 L96.8788989,13.8409091 C96.4706333,9.09545455 91.9797116,5.93181818 87.4887899,5.93181818 C85.8557274,5.93181818 84.6309306,6.32727273 82.9978682,7.11818182 L82.5896025,7.11818182 C81.3648057,7.90909091 79.7317433,8.30454545 78.0986808,8.30454545 C75.2408215,8.30454545 71.9746966,6.72272727 70.3416342,4.35 L70.3416342,3.95454545 C68.7085718,1.18636364 65.4424469,0 62.5845876,0 C59.7267283,0 56.868869,1.18636364 54.827541,3.95454545 L54.827541,4.35 C53.1944785,6.72272727 49.9283536,8.30454545 47.0704943,8.30454545 C45.4374319,8.30454545 44.2126351,7.90909091 42.5795726,7.11818182 L42.171307,7.11818182 C40.9465102,6.32727273 39.3134477,5.93181818 37.6803853,5.93181818 C33.1894635,5.93181818 29.1068074,9.09545455 28.2902762,13.8409091 L28.2902762,14.2363636 C27.8820106,18.9818182 23.7993545,22.1454545 18.9001671,22.1454545 L18.4919015,22.1454545 C11.9596517,22.1454545 7.46873002,28.4727273 9.91832369,34.4045455 C11.5513861,38.7545455 9.91832369,43.5 5.42740196,45.8727273 L5.01913635,45.8727273 C-0.696582213,48.6409091 -1.92137905,56.55 3.3860739,60.9 C7.06046441,64.0636364 7.87699563,69.2045455 5.01913635,73.1590909 L5.01913635,73.5545455 C1.34474585,78.6954545 4.20260513,86.2090909 10.7348549,87.3954545 C15.6340422,88.1863636 18.4919015,92.9318182 18.0836359,97.2818182 L18.0836359,97.6772727 C17.2671047,103.213636 21.7580264,107.959091 27.0654794,107.959091 C27.8820106,107.959091 28.6985418,107.959091 29.515073,107.563636 C30.3316043,107.168182 31.1481355,107.168182 31.9646667,107.168182 C35.6390572,107.168182 39.3134477,109.540909 40.5382446,113.1 C41.7630414,117.054545 45.4374319,119.031818 49.1118224,119.031818 C51.1531505,119.031818 53.6027441,118.240909 55.2358066,116.659091 C56.868869,115.077273 59.3184627,114.286364 61.7680564,114.286364 C64.21765,114.286364 66.2589781,115.077273 68.3003061,116.659091 C69.9333686,118.240909 72.3829623,119.031818 74.4242903,119.031818 C78.0986808,119.031818 81.7730713,117.054545 82.9978682,113.1 C84.222665,109.540909 87.8970555,107.168182 91.571446,107.168182 C92.3879772,107.168182 93.2045084,107.168182 94.0210397,107.563636 C94.8375709,107.959091 95.6541021,107.959091 96.4706333,107.959091 C101.778086,107.959091 106.269008,103.213636 105.452477,97.6772727 L105.452477,97.2818182 C104.635946,92.5363636 107.90207,88.1863636 112.801258,87.3954545 C119.333508,86.2090909 122.191367,78.6954545 118.516976,73.5545455 L118.516976,73.1590909 C117.29218,69.2045455 118.108711,64.0636364 121.783101,60.9 C126.682289,56.9454545 125.865757,49.0363636 120.150039,45.8727273 Z" id="path-1"></path>
        <mask id="mask-2" maskContentUnits="userSpaceOnUse" maskUnits="objectBoundingBox" x="-8" y="-8" width="141" height="135.031818">
            <rect x="-8" y="-8" width="141" height="135.031818" fill="white"></rect>
            <use xlink:href="#path-1" fill="black"></use>
        </mask>
    </defs>
    <g id="Pages" stroke="none" stroke-width="1" fill="none" fill-rule="evenodd">
        <g id="Florida-Marriage-Nane-Change" transform="translate(-898.000000, -399.000000)">
            <g id="certificate" transform="translate(898.000000, 399.000000)">
                <g id="document" fill="#05315E">
                    <path d="M0,0 L360,0 L360,226 L0,226 L0,0 Z M10,216 L350,216 L350,10 L10,10 L10,216 Z" id="Rectangle-12"></path>
                    <path d="M33.8050612,5 C34.5789216,7.18945248 35.0000012,9.54555204 35.0000012,12 C35.0000012,23.5979797 25.5979809,33 14.0000012,33 C10.7792088,33 7.72776645,32.2749267 5,30.9791059 L5.00000118,5 L33.8050612,5 L33.8050612,5 Z" id="Combined-Shape"></path>
                    <path d="M33.8050612,219 C34.5789216,216.810548 35.0000012,214.454448 35.0000012,212 C35.0000012,200.40202 25.5979809,191 14.0000012,191 C10.7792088,191 7.72776645,191.725073 5,193.020894 L5.00000118,219 L33.8050612,219 L33.8050612,219 Z" id="Combined-Shape-Copy-2"></path>
                    <path d="M326.19494,5 C325.42108,7.18945248 325,9.54555204 325,12 C325,23.5979797 334.40202,33 346,33 C349.220792,33 352.272235,32.2749267 355.000001,30.9791059 L355,5 L326.19494,5 L326.19494,5 Z" id="Combined-Shape-Copy"></path>
                    <path d="M326.19494,219 C325.42108,216.810548 325,214.454448 325,212 C325,200.40202 334.40202,191 346,191 C349.220792,191 352.272235,191.725073 355.000001,193.020894 L355,219 L326.19494,219 L326.19494,219 Z" id="Combined-Shape-Copy-3"></path>
                </g>
                <g id="signature" transform="translate(36.000000, 132.000000)" fill-opacity="0.490545743" fill="#05315E">
                    <polygon id="Line" points="0.70598235 46 117.663158 46 117.663158 42 0.70598235 42"></polygon>
                    <polygon id="Line-Copy" points="0.70598235 32 117.663158 32 117.663158 28 0.70598235 28"></polygon>
                    <polygon id="Line-Copy-2" points="0.5 18 104 18 104 14 0.5 14"></polygon>
                    <polygon id="Line-Copy-3" points="0.5 4 84.5 4 84.5 0 0.5 0"></polygon>
                </g>
                <g id="emblem"  transform="translate(247.000000, 113.000000)">
                    <path d="M63.1108426,146.727273 L98.2216852,174.013636 L90.8729042,123 C87.1985137,127.35 81.4827951,129.722727 75.7670766,129.722727 C71.2761548,129.722727 66.7852331,128.140909 63.1108426,125.372727 C59.4364521,128.140909 54.9455304,129.722727 50.4546086,129.722727 C44.3306245,129.722727 39.0231715,126.954545 35.348781,123 L28,174.409091 L63.1108426,146.727273 Z" id="Shape" fill="#F5A623"></path>
                    <g id="Shape">
                        <use fill="#F5A623" fill-rule="evenodd" xlink:href="#path-1"></use>
                        <use stroke="#FFFFFF" mask="url(#mask-2)" stroke-width="16" xlink:href="#path-1"></use>
                    </g>
                </g>
                <path d="M41.26,62.14 L41.26,66.52 L49.48,66.52 L49.48,70.75 L41.26,70.75 L41.26,79 L36.19,79 L36.19,57.76 L50.17,57.76 L50.17,62.14 L41.26,62.14 Z M66.25,79 L64.6,74.83 L56.38,74.83 L54.82,79 L49.24,79 L58.15,57.76 L63.13,57.76 L71.95,79 L66.25,79 Z M60.55,63.43 L57.85,70.72 L63.19,70.72 L60.55,63.43 Z M92.98,79 L93.1,63.97 L93.01,63.97 L87.49,79 L83.89,79 L78.52,63.97 L78.43,63.97 L78.55,79 L73.72,79 L73.72,57.76 L81.01,57.76 L85.84,71.38 L85.96,71.38 L90.58,57.76 L97.99,57.76 L97.99,79 L92.98,79 Z M102.37,79 L102.37,57.76 L107.53,57.76 L107.53,79 L102.37,79 Z M111.91,79 L111.91,57.76 L117.07,57.76 L117.07,74.53 L125.29,74.53 L125.29,79 L111.91,79 Z M135.7,70 L135.7,79 L130.57,79 L130.57,70 L122.59,57.76 L128.8,57.76 L133.33,65.62 L137.86,57.76 L143.86,57.76 L135.7,70 Z M49.69,110 L41.14,96.11 L41.05,96.11 L41.17,110 L36.19,110 L36.19,88.76 L42.04,88.76 L50.56,102.62 L50.65,102.62 L50.53,88.76 L55.51,88.76 L55.51,110 L49.69,110 Z M74.29,110 L72.64,105.83 L64.42,105.83 L62.86,110 L57.28,110 L66.19,88.76 L71.17,88.76 L79.99,110 L74.29,110 Z M68.59,94.43 L65.89,101.72 L71.23,101.72 L68.59,94.43 Z M101.02,110 L101.14,94.97 L101.05,94.97 L95.53,110 L91.93,110 L86.56,94.97 L86.47,94.97 L86.59,110 L81.76,110 L81.76,88.76 L89.05,88.76 L93.88,102.38 L94,102.38 L98.62,88.76 L106.03,88.76 L106.03,110 L101.02,110 Z M110.41,110 L110.41,88.76 L124.69,88.76 L124.69,93.11 L115.36,93.11 L115.36,97.1 L124.18,97.1 L124.18,101.21 L115.36,101.21 L115.36,105.62 L125.23,105.62 L125.23,110 L110.41,110 Z M154.81,107.06 C153.869995,108.140005 152.710007,108.994997 151.33,109.625 C149.949993,110.255003 148.360009,110.57 146.56,110.57 C144.919992,110.57 143.405007,110.300003 142.015,109.76 C140.624993,109.219997 139.420005,108.455005 138.4,107.465 C137.379995,106.474995 136.580003,105.290007 136,103.91 C135.419997,102.529993 135.13,101.010008 135.13,99.35 C135.13,97.6499915 135.424997,96.1100069 136.015,94.73 C136.605003,93.3499931 137.419995,92.1750048 138.46,91.205 C139.500005,90.2349951 140.719993,89.4900026 142.12,88.97 C143.520007,88.4499974 145.029992,88.19 146.65,88.19 C148.150008,88.19 149.624993,88.4549973 151.075,88.985 C152.525007,89.5150026 153.699996,90.2899949 154.6,91.31 L151.12,94.79 C150.639998,94.1299967 150.010004,93.6400016 149.23,93.32 C148.449996,92.9999984 147.650004,92.84 146.83,92.84 C145.929996,92.84 145.105004,93.0049983 144.355,93.335 C143.604996,93.6650016 142.960003,94.1199971 142.42,94.7 C141.879997,95.2800029 141.460002,95.964996 141.16,96.755 C140.859999,97.5450039 140.71,98.4099953 140.71,99.35 C140.71,100.310005 140.859999,101.189996 141.16,101.99 C141.460002,102.790004 141.874997,103.474997 142.405,104.045 C142.935003,104.615003 143.569996,105.059998 144.31,105.38 C145.050004,105.700002 145.859996,105.86 146.74,105.86 C147.760005,105.86 148.649996,105.660002 149.41,105.26 C150.170004,104.859998 150.779998,104.340003 151.24,103.7 L154.81,107.06 Z M170.41,110 L170.41,101.12 L162.13,101.12 L162.13,110 L157,110 L157,88.76 L162.13,88.76 L162.13,96.8 L170.41,96.8 L170.41,88.76 L175.54,88.76 L175.54,110 L170.41,110 Z M194.32,110 L192.67,105.83 L184.45,105.83 L182.89,110 L177.31,110 L186.22,88.76 L191.2,88.76 L200.02,110 L194.32,110 Z M188.62,94.43 L185.92,101.72 L191.26,101.72 L188.62,94.43 Z M215.29,110 L206.74,96.11 L206.65,96.11 L206.77,110 L201.79,110 L201.79,88.76 L207.64,88.76 L216.16,102.62 L216.25,102.62 L216.13,88.76 L221.11,88.76 L221.11,110 L215.29,110 Z M244.36,108.71 C243.319995,109.250003 242.105007,109.689998 240.715,110.03 C239.324993,110.370002 237.810008,110.54 236.17,110.54 C234.469992,110.54 232.905007,110.270003 231.475,109.73 C230.044993,109.189997 228.815005,108.430005 227.785,107.45 C226.754995,106.469995 225.950003,105.295007 225.37,103.925 C224.789997,102.554993 224.5,101.030008 224.5,99.35 C224.5,97.6499915 224.794997,96.1100069 225.385,94.73 C225.975003,93.3499931 226.789995,92.1750048 227.83,91.205 C228.870005,90.2349951 230.089993,89.4900026 231.49,88.97 C232.890007,88.4499974 234.399992,88.19 236.02,88.19 C237.700008,88.19 239.259993,88.4449974 240.7,88.955 C242.140007,89.4650025 243.309996,90.1499957 244.21,91.01 L240.97,94.7 C240.469998,94.1199971 239.810004,93.6450018 238.99,93.275 C238.169996,92.9049981 237.240005,92.72 236.2,92.72 C235.299996,92.72 234.470004,92.8849983 233.71,93.215 C232.949996,93.5450016 232.290003,94.004997 231.73,94.595 C231.169997,95.1850029 230.735002,95.8849959 230.425,96.695 C230.114998,97.505004 229.96,98.3899952 229.96,99.35 C229.96,100.330005 230.099999,101.229996 230.38,102.05 C230.660001,102.870004 231.074997,103.574997 231.625,104.165 C232.175003,104.755003 232.854996,105.214998 233.665,105.545 C234.475004,105.875002 235.399995,106.04 236.44,106.04 C237.040003,106.04 237.609997,105.995 238.15,105.905 C238.690003,105.815 239.189998,105.670001 239.65,105.47 L239.65,101.6 L235.6,101.6 L235.6,97.46 L244.36,97.46 L244.36,108.71 Z M248.56,110 L248.56,88.76 L262.84,88.76 L262.84,93.11 L253.51,93.11 L253.51,97.1 L262.33,97.1 L262.33,101.21 L253.51,101.21 L253.51,105.62 L263.38,105.62 L263.38,110 L248.56,110 Z" id="FAMILY-NAME-CHANGE" fill="#05315E"></path>
            </g>
        </g>
    </g>
</svg>