<svg width="39px" height="39px" viewBox="0 0 39 39" version="1.1" xmlns="http://www.w3.org/2000/svg" xmlns:xlink="http://www.w3.org/1999/xlink">
    <!-- Generator: Sketch 41.2 (35397) - http://www.bohemiancoding.com/sketch -->
    <title>Page 1</title>
    <defs></defs>
    <g id="Pages" stroke="none" stroke-width="1" fill="none" fill-rule="evenodd">
        <g id="FAQ" transform="translate(-146.000000, -2582.000000)" fill="#05315E">
            <path d="M147.477273,2583.51948 L147.477273,2601.75325 L156.340909,2601.75325 L156.340909,2603.27273 L146,2603.27273 L146,2582 L172.590909,2582 L172.590909,2592.63636 L171.113636,2592.63636 L171.113636,2583.51948 L147.477273,2583.51948 Z M158.409091,2594.40909 L185,2594.40909 L185,2615.09091 L180.568182,2615.09091 L180.568182,2621 L179.367898,2621 L173.458807,2615.09091 L158.409091,2615.09091 L158.409091,2594.40909 Z M183.227273,2613.20933 L183.227273,2595.29545 L159.295455,2595.29545 L159.295455,2613.20933 L173.598455,2613.20933 L178.740057,2618.34091 L178.740057,2613.20933 L183.227273,2613.20933 Z" id="Page-1"></path>
        </g>
    </g>
</svg>