<svg width="65px" height="61px" viewBox="0 0 65 61" version="1.1" xmlns="http://www.w3.org/2000/svg" xmlns:xlink="http://www.w3.org/1999/xlink">
    <!-- Generator: Sketch 41.2 (35397) - http://www.bohemiancoding.com/sketch -->
    <title>Check Mark</title>
    <defs></defs>
    <g id="Pages" stroke="none" stroke-width="1" fill="none" fill-rule="evenodd">
        <g id="Homepage" transform="translate(-646.000000, -1945.000000)" fill="#7ED321">
            <g id="Check-Mark" transform="translate(646.000000, 1945.000000)">
                <g id="Group">
                    <g transform="translate(0.000000, 0.463179)" id="Shape">
                        <path d="M30.7646762,0.268472619 C30.3611851,0.261210714 29.9501684,0.280817857 29.5459262,0.290984524 C27.3899629,0.346175 25.2436918,0.638684524 23.1136346,1.17606548 C7.27996678,5.17073762 -2.36794711,21.360646 1.60495407,37.2813845 C5.57785511,53.2020214 21.6792723,62.9029095 37.5129401,58.9082083 C53.3466007,54.9134345 62.994529,38.7235988 59.0216207,22.8028602 C58.8795312,22.0029001 58.3065002,21.3489252 57.5351499,21.1064169 C56.7637996,20.8639086 55.9223294,21.0731722 55.3523344,21.6492569 C54.7823395,22.2253416 54.5785537,23.0725015 54.823704,23.8468317 C58.2266634,37.483556 50.0369307,51.2655619 36.4747457,54.6872262 C22.9125029,58.1088905 9.20577956,49.874181 5.80287067,36.2374131 C2.39990407,22.6006888 10.5896368,8.81868286 24.151829,5.39701857 C31.4274884,3.5614269 39.1262257,5.05977571 45.1865512,9.50456976 C45.8090714,10.006226 46.6553848,10.1233655 47.3895535,9.80949057 C48.1237222,9.49561567 48.6269846,8.80149982 48.6995745,8.00266723 C48.7721643,7.20383464 48.4023392,6.42950713 47.7368984,5.98704833 C42.7468268,2.32729524 36.8170862,0.362369048 30.7646762,0.268327381 L30.7646762,0.268472619 Z M62.0007873,3.12781857 C61.4395323,3.16204 60.9134845,3.41428983 60.5337734,3.83127929 C52.8368923,11.928521 39.1027029,27.0023471 30.9000929,35.6929155 L20.2021762,26.207096 C19.6216145,25.6882102 18.8098437,25.5201678 18.0726502,25.7662687 C17.3354567,26.0123696 16.7848376,26.6352252 16.6282058,27.4002118 C16.471574,28.1651984 16.7327256,28.9560964 17.3132873,29.4749821 L29.5910651,40.3678393 C30.4596215,41.1466205 31.7848694,41.0965093 32.5928012,40.2543357 C40.6609334,31.7667667 55.6670357,15.2459769 63.6483568,6.84954476 C64.2870944,6.21204306 64.4674377,5.24391292 64.101456,4.4171897 C63.7354742,3.59046648 62.8993625,3.07726877 62.0007873,3.12781857 L62.0007873,3.12781857 Z"></path>
                    </g>
                </g>
            </g>
        </g>
    </g>
</svg>