<svg width="147px" height="126px" viewBox="0 0 147 126" version="1.1" xmlns="http://www.w3.org/2000/svg" xmlns:xlink="http://www.w3.org/1999/xlink">
    <!-- Generator: Sketch 41.2 (35397) - http://www.bohemiancoding.com/sketch -->
    <title>Cloud</title>
    <desc>Created with Sketch.</desc>
    <defs></defs>
    <g id="Pages" stroke="none" stroke-width="1" fill="none" fill-rule="evenodd">
        <g id="Florida-Marriage-Nane-Change" transform="translate(-1034.000000, -1205.000000)">
            <g id="Group-4" transform="translate(-1.000000, 942.000000)">
                <g id="Green">
                    <g id="Group-2" transform="translate(154.000000, 248.000000)">
                        <g id="Cloud" transform="translate(881.000000, 15.000000)">
                            <circle id="Oval-3" stroke="#979797" fill="#FFFFFF" cx="72.5" cy="94.5" r="27.5"></circle>
                            <path d="M99.1538462,94.5 C99.1538462,109.221057 87.2203704,121.153846 72.5,121.153846 C57.7796296,121.153846 45.8461538,109.221057 45.8461538,94.5 C45.8461538,79.7804977 57.7804977,67.8461538 72.5,67.8461538 C87.2195023,67.8461538 99.1538462,79.7804977 99.1538462,94.5 Z M104,94.5 C104,77.1040408 89.8959592,63 72.5,63 C55.1040408,63 41,77.1040408 41,94.5 C41,111.897577 55.1032351,126 72.5,126 C89.8967649,126 104,111.897577 104,94.5 Z" id="Stroke-1078" fill="#05315E"></path>
                            <path d="M83.5058,0 C70.1714025,0 57.2234796,6.75360318 49.3403605,17.3463872 C46.2391096,15.7197356 42.7797479,14.85 39.2,14.85 C27.0228024,14.85 17.15,24.8235452 17.15,37.125 C17.15,37.379177 17.1600095,37.6163833 17.180073,37.9282197 C17.1974891,38.1888541 17.1999036,38.2245893 17.202007,38.2569037 C17.2043972,38.2936245 19.65635,38.24865 19.65635,38.24865 L17.2100399,38.1128658 C17.1904336,38.4591758 17.1904336,38.4591758 17.1846791,38.5619127 C17.1612137,38.9855086 17.15,39.2847901 17.15,39.6 L19.6,39.6 L18.5410334,37.3681371 C18.0848356,37.5890322 17.6341403,37.8223739 17.1892948,38.0676468 C7.08583527,43.6383569 0,55.3638099 0,67.208625 C0,84.7001548 14.1554024,99 31.47025,99 L31.47025,94.05 C16.8615976,94.05 4.9,81.9663452 4.9,67.208625 C4.9,56.7581181 11.5319681,46.2512389 20.6589666,41.8318629 L22.05,41.1583118 L22.05,39.6 C22.05,39.3976067 22.0582522,39.1773652 22.0770246,38.8384873 C22.0953032,38.5172928 22.0953032,38.5172928 22.1026601,38.3844342 C22.0917964,37.9356168 22.0917964,37.9356168 22.081541,37.784082 C22.055982,37.3930896 22.05,37.2513273 22.05,37.125 C22.05,27.5573548 29.7289976,19.8 39.2,19.8 C42.6184051,19.8 45.8881112,20.8167567 48.6827592,22.6929247 L50.7220272,24.0619734 L52.0784817,22.0027259 C58.8774492,11.6811434 71.0420026,4.95 83.5058,4.95 C103.375354,4.95 119.793536,21.7549627 120.05756,42.107432 L120.08383,44.1324493 L122.053935,44.5072464 C133.487209,46.6823381 142.1,57.2195313 142.1,69.2307 C142.1,82.8746702 131.037552,94.05 117.5314,94.05 L117.5314,99 C133.743748,99 147,85.6084798 147,69.2307 C147,55.5234554 137.663548,43.4529621 124.887178,40.0797534 C123.594423,17.9401755 105.44082,0 83.5058,0 Z" id="Stroke-1126" fill="#05315E"></path>
                            <path d="M62.6855469,87.4951172 L66.7768555,87.4951172 C67.0400391,84.0737305 69.3369141,81.9443359 72.949707,81.9443359 C76.5146484,81.9443359 78.8115234,84.121582 78.8115234,87.0883789 C78.8115234,89.6484375 77.7348633,91.1557617 74.9594727,92.8544922 C71.6816406,94.8164062 70.1503906,96.9697266 70.1743164,100.12793 L70.1743164,102.329102 L74.3613281,102.329102 L74.3613281,100.773926 C74.3613281,98.2617188 75.2226562,96.921875 78.2612305,95.1274414 C81.3237305,93.2851562 83.2617188,90.6293945 83.2617188,86.8730469 C83.2617188,81.9443359 79.1464844,78.2119141 73.1171875,78.2119141 C66.394043,78.2119141 62.9487305,82.3271484 62.6855469,87.4951172 Z M72.2797852,113.239258 C73.8349609,113.239258 75.0073242,112.042969 75.0073242,110.511719 C75.0073242,108.956543 73.8349609,107.78418 72.2797852,107.78418 C70.7485352,107.78418 69.5522461,108.956543 69.5522461,110.511719 C69.5522461,112.042969 70.7485352,113.239258 72.2797852,113.239258 Z" id="?" fill="#50E3C2"></path>
                        </g>
                    </g>
                </g>
            </g>
        </g>
    </g>
</svg>