<svg width="158px" height="136px" viewBox="0 0 158 136" version="1.1" xmlns="http://www.w3.org/2000/svg" xmlns:xlink="http://www.w3.org/1999/xlink">
    <!-- Generator: Sketch 41.2 (35397) - http://www.bohemiancoding.com/sketch -->
    <title>Group 11</title>
    <defs></defs>
    <g id="Pages" stroke="none" stroke-width="1" fill="none" fill-rule="evenodd">
        <g id="Florida-Marriage-Nane-Change" transform="translate(-1143.000000, -474.000000)" fill="#4990E2">
            <g id="Group-11" transform="translate(1143.000000, 474.000000)">
                <path d="M134.386046,79.2681885 L134.386046,108.716178 C134.386046,116.062772 131.777729,122.344328 126.561034,127.561032 C121.344338,132.777733 115.062768,135.386046 107.716178,135.386046 L30.6698683,135.386046 C23.3232739,135.386046 17.0417181,132.777733 11.8250143,127.561032 C6.60831251,122.344328 4,116.062772 4,108.716178 L4,31.6698683 C4,24.3232781 6.60831251,18.0417078 11.8250143,12.8250122 C17.0417181,7.60831666 23.3232739,5 30.6698683,5 L107.716178,5 C111.605555,5 115.217056,5.77168985 118.550805,7.31509029 C119.476866,7.74723411 120.032474,8.45719209 120.21769,9.44496422 C120.402886,10.494489 120.125071,11.3896426 119.384248,12.1304872 L114.846665,16.66807 C114.229305,17.2854302 113.519347,17.5941102 112.71677,17.5941102 C112.531575,17.5941102 112.25376,17.5323576 111.883348,17.4088939 C110.463412,17.0384819 109.074382,16.8532656 107.716178,16.8532656 L30.6698683,16.8532656 C26.5952953,16.8532656 23.1072518,18.3040475 20.2056527,21.2056527 C17.3040537,24.1072373 15.853278,27.5952746 15.853278,31.6698683 L15.853278,108.716178 C15.853278,112.790751 17.3040537,116.278794 20.2056527,119.180393 C23.1072518,122.081992 26.5952953,123.532768 30.6698683,123.532768 L107.716178,123.532768 C111.790771,123.532768 115.278809,122.081992 118.180393,119.180393 C121.081998,116.278794 122.53278,112.790751 122.53278,108.716178 L122.53278,85.1948213 C122.53278,84.3922448 122.810574,83.7131734 123.366202,83.1575451 L129.292856,77.2309124 C129.910216,76.6135522 130.620153,76.3048721 131.422729,76.3048721 C131.793141,76.3048721 132.163553,76.3974699 132.533986,76.5826862 C133.768706,77.0765619 134.386046,77.9717363 134.386046,79.2681885 Z M155.777508,33.9849586 L80.3980832,109.364404 C78.9164146,110.846072 77.1569526,111.586896 75.1196557,111.586896 C73.0823796,111.586896 71.3229176,110.846072 69.8412491,109.364404 L30.0216422,69.5447968 C28.5399736,68.0631283 27.7991497,66.3036663 27.7991497,64.2663902 C27.7991497,62.2290933 28.5399736,60.4696313 30.0216422,58.9879627 L40.2080644,48.8015613 C41.6897329,47.3198927 43.4491742,46.5790688 45.486471,46.5790688 C47.5237679,46.5790688 49.2832091,47.3198927 50.7648777,48.8015613 L75.1196557,73.1563393 L135.034272,13.2417231 C136.515941,11.7600545 138.275403,11.0192306 140.312699,11.0192306 C142.349976,11.0192306 144.109438,11.7600545 145.591106,13.2417231 L155.777508,23.4281452 C157.259176,24.9098138 158,26.669255 158,28.7065519 C158,30.7438488 157.259176,32.50329 155.777508,33.9849586 Z" id="Page-1" fill-opacity="0.3"></path>
                <path d="M130.386046,74.2681885 L130.386046,103.716178 C130.386046,111.062772 127.777729,117.344328 122.561034,122.561032 C117.344338,127.777733 111.062768,130.386046 103.716178,130.386046 L26.6698683,130.386046 C19.3232739,130.386046 13.0417181,127.777733 7.82501429,122.561032 C2.60831251,117.344328 0,111.062772 0,103.716178 L0,26.6698683 C0,19.3232781 2.60831251,13.0417078 7.82501429,7.82501222 C13.0417181,2.60831666 19.3232739,0 26.6698683,0 L103.716178,0 C107.605555,0 111.217056,0.771689848 114.550805,2.31509029 C115.476866,2.74723411 116.032474,3.45719209 116.21769,4.44496422 C116.402886,5.49448897 116.125071,6.38964255 115.384248,7.13048721 L110.846665,11.66807 C110.229305,12.2854302 109.519347,12.5941102 108.71677,12.5941102 C108.531575,12.5941102 108.25376,12.5323576 107.883348,12.4088939 C106.463412,12.0384819 105.074382,11.8532656 103.716178,11.8532656 L26.6698683,11.8532656 C22.5952953,11.8532656 19.1072518,13.3040475 16.2056527,16.2056527 C13.3040537,19.1072373 11.853278,22.5952746 11.853278,26.6698683 L11.853278,103.716178 C11.853278,107.790751 13.3040537,111.278794 16.2056527,114.180393 C19.1072518,117.081992 22.5952953,118.532768 26.6698683,118.532768 L103.716178,118.532768 C107.790771,118.532768 111.278809,117.081992 114.180393,114.180393 C117.081998,111.278794 118.53278,107.790751 118.53278,103.716178 L118.53278,80.1948213 C118.53278,79.3922448 118.810574,78.7131734 119.366202,78.1575451 L125.292856,72.2309124 C125.910216,71.6135522 126.620153,71.3048721 127.422729,71.3048721 C127.793141,71.3048721 128.163553,71.3974699 128.533986,71.5826862 C129.768706,72.0765619 130.386046,72.9717363 130.386046,74.2681885 Z M151.777508,28.9849586 L76.3980832,104.364404 C74.9164146,105.846072 73.1569526,106.586896 71.1196557,106.586896 C69.0823796,106.586896 67.3229176,105.846072 65.8412491,104.364404 L26.0216422,64.5447968 C24.5399736,63.0631283 23.7991497,61.3036663 23.7991497,59.2663902 C23.7991497,57.2290933 24.5399736,55.4696313 26.0216422,53.9879627 L36.2080644,43.8015613 C37.6897329,42.3198927 39.4491742,41.5790688 41.486471,41.5790688 C43.5237679,41.5790688 45.2832091,42.3198927 46.7648777,43.8015613 L71.1196557,68.1563393 L131.034272,8.24172308 C132.515941,6.76005451 134.275403,6.0192306 136.312699,6.0192306 C138.349976,6.0192306 140.109438,6.76005451 141.591106,8.24172308 L151.777508,18.4281452 C153.259176,19.9098138 154,21.669255 154,23.7065519 C154,25.7438488 153.259176,27.50329 151.777508,28.9849586 Z" id="Page-1"></path>
            </g>
        </g>
    </g>
</svg>