<svg width="113px" height="106px" viewBox="0 0 113 106" version="1.1" xmlns="http://www.w3.org/2000/svg" xmlns:xlink="http://www.w3.org/1999/xlink">
    <!-- Generator: Sketch 41.2 (35397) - http://www.bohemiancoding.com/sketch -->
    <title>54 upload folder interaction communication essential webby</title>
    <defs></defs>
    <g id="Pages" stroke="none" stroke-width="1" fill="none" fill-rule="evenodd">
        <g id="Homepage" transform="translate(-966.000000, -1321.000000)">
            <g id="54-upload-folder-interaction-communication-essential-webby" transform="translate(966.000000, 1321.000000)">
                <g id="54---Upload-Folder-(interaction,-communication,-essential,-webby)">
                    <g id="Page-1">
                        <g id="Icons">
                            <g id="Upload-Folder">
                                <polygon id="Fill-414" fill="#FFFFFF" points="65 62 60 55 40 55 40 106 98 106 98 62"></polygon>
                                <path d="M40.519197,0 L0,0 L0,100 L113,100 L113,13.2075472 L49.9358637,13.2075472 L40.519197,0 Z M109.233333,96.2264151 L3.76666667,96.2264151 L3.76666667,3.77358491 L38.580803,3.77358491 L47.9974696,16.9811321 L109.233333,16.9811321 L109.233333,96.2264151 Z" id="Stroke-415" fill="#0F81E0"></path>
                                <polygon id="Stroke-416" fill="#0F81E0" points="38.0951432 3.26177396 56.9092646 29.5413388 59.9688309 27.3509277 41.1547094 1.07136283"></polygon>
                                <path d="M58.4390478,79.3044664 L58.4390478,41.6762235 L54.6762235,41.6762235 L54.6762235,79.3044664 L58.4390478,79.3044664 Z M70.2785735,58.0578799 L72.9392921,55.3971613 L56.5576356,39.0155049 L40.1759792,55.3971613 L42.8366977,58.0578799 L56.5576356,44.336942 L70.2785735,58.0578799 Z" id="Stroke-423" fill="#0F81E0"></path>
                                <polygon id="Path" fill="#0F81E0" points="58 31 111 31 111 27 58 27"></polygon>
                            </g>
                        </g>
                    </g>
                </g>
            </g>
        </g>
    </g>
</svg>