<svg width="34px" height="28px" viewBox="0 0 34 28" version="1.1" xmlns="http://www.w3.org/2000/svg" xmlns:xlink="http://www.w3.org/1999/xlink">
    <!-- Generator: Sketch 41.2 (35397) - http://www.bohemiancoding.com/sketch -->
    <title>Page 1</title>
    <defs></defs>
    <g id="Pages" stroke="none" stroke-width="1" fill="none" fill-rule="evenodd">
        <g id="FAQ" transform="translate(-1250.000000, -764.000000)" fill="#05315E">
            <path d="M1281.0387,766.380751 C1280.23535,765.652715 1279.32532,765.100416 1278.30858,764.723847 C1277.29183,764.347278 1276.25628,764.158995 1275.20188,764.158995 C1274.14748,764.158995 1273.11193,764.347278 1272.09519,764.723847 C1271.07845,765.100416 1270.16841,765.652715 1269.36506,766.380751 L1267.18096,768.376569 L1264.99686,766.380751 C1264.19351,765.652715 1263.28347,765.100416 1262.26674,764.723847 C1261.24999,764.347278 1260.21444,764.158995 1259.16004,764.158995 C1258.10564,764.158995 1257.07009,764.347278 1256.05334,764.723847 C1255.0366,765.100416 1254.12657,765.652715 1253.32322,766.380751 C1252.41945,767.209207 1251.74163,768.144342 1251.28975,769.186189 C1250.83786,770.228036 1250.61192,771.294971 1250.61192,772.387028 C1250.61192,773.479081 1250.83786,774.552292 1251.28975,775.606695 C1251.74163,776.661093 1252.41945,777.602504 1253.32322,778.430961 L1267.18096,791.158995 L1281.0387,778.430961 C1281.94247,777.602504 1282.62029,776.661093 1283.07218,775.606695 C1283.52406,774.552292 1283.75,773.479081 1283.75,772.387028 C1283.75,771.294971 1283.52406,770.228036 1283.07218,769.186189 C1282.62029,768.144342 1281.94247,767.209207 1281.0387,766.380751 Z M1279.00523,776.435142 L1267.18096,787.468619 L1255.35669,776.435142 C1254.77928,775.882843 1254.36506,775.26151 1254.11401,774.571129 C1253.86297,773.880748 1253.73745,773.158999 1253.73745,772.405856 C1253.73745,771.652713 1253.83159,770.956066 1254.01987,770.315896 C1254.20816,769.675726 1254.591,769.092053 1255.16841,768.564851 C1255.69561,768.062757 1256.30439,767.686193 1256.99477,767.435144 C1257.68515,767.184095 1258.4069,767.058575 1259.16004,767.058575 C1259.91318,767.058575 1260.63493,767.253133 1261.32531,767.642258 C1262.01569,768.031379 1262.61192,768.46443 1263.11401,768.94142 L1267.18096,772.443515 L1271.21025,768.94142 C1271.73745,768.46443 1272.34623,768.031379 1273.03661,767.642258 C1273.72699,767.253133 1274.44874,767.058575 1275.20188,767.058575 C1275.95502,767.058575 1276.67677,767.184095 1277.36715,767.435144 C1278.05753,767.686193 1278.66632,768.062757 1279.19352,768.564851 C1279.77092,769.092053 1280.15376,769.675726 1280.34205,770.315896 C1280.53033,770.956066 1280.62447,771.652713 1280.62447,772.405856 C1280.62447,773.158999 1280.49895,773.880748 1280.24791,774.571129 C1279.99686,775.26151 1279.58264,775.882843 1279.00523,776.435142 Z" id="Page-1"></path>
        </g>
    </g>
</svg>