<svg width="38px" height="38px" viewBox="0 0 38 38" version="1.1" xmlns="http://www.w3.org/2000/svg" xmlns:xlink="http://www.w3.org/1999/xlink">
    <!-- Generator: Sketch 41.2 (35397) - http://www.bohemiancoding.com/sketch -->
    <title>Page 1</title>
    <defs></defs>
    <g id="Pages" stroke="none" stroke-width="1" fill="none" fill-rule="evenodd">
        <g id="FAQ" transform="translate(-1250.000000, -606.000000)" fill="#05315E">
            <path d="M1286.14453,610.824219 L1275.45703,606.074219 C1275.30859,606.024738 1275.13542,606 1274.9375,606 C1274.78906,606 1274.64062,606.024738 1274.49219,606.074219 L1263.0625,610.675781 L1252.89453,606.074219 C1252.74609,606.024738 1252.57292,606 1252.375,606 C1251.83073,606 1251.33594,606.173175 1250.89062,606.519531 C1250.29687,607.014325 1250,607.632808 1250,608.375 L1250,636.875 C1250,637.419274 1250.17318,637.914062 1250.51953,638.359375 C1250.86589,638.804688 1251.3112,639.076825 1251.85547,639.175781 L1262.46875,643.925781 C1262.66667,643.975261 1262.83984,644 1262.98828,644 C1263.1862,644 1263.35938,643.975261 1263.50781,643.925781 L1274.9375,639.324219 L1285.10547,643.925781 C1285.30339,643.975261 1285.47656,644 1285.625,644 C1286.16927,644 1286.66406,643.826825 1287.10938,643.480469 C1287.70313,642.985675 1288,642.367191 1288,641.625 L1288,613.125 C1288,612.580726 1287.82682,612.085938 1287.48047,611.640625 C1287.13411,611.195312 1286.68881,610.923175 1286.14453,610.824219 Z M1264.25,612.605469 L1273.75,608.820312 L1273.75,637.320312 L1264.25,641.105469 L1264.25,612.605469 Z M1252.375,608.375 L1261.875,612.605469 L1261.875,641.105469 L1252.375,636.875 L1252.375,608.375 Z M1285.625,641.625 L1276.125,637.394531 L1276.125,608.894531 L1285.625,613.125 L1285.625,641.625 Z" id="Page-1"></path>
        </g>
    </g>
</svg>