<svg width="33px" height="43px" viewBox="0 0 33 43" version="1.1" xmlns="http://www.w3.org/2000/svg" xmlns:xlink="http://www.w3.org/1999/xlink">
    <!-- Generator: Sketch 41.2 (35397) - http://www.bohemiancoding.com/sketch -->
    <title>Page 1</title>
    <defs></defs>
    <g id="Pages" stroke="none" stroke-width="1" fill="none" fill-rule="evenodd">
        <g id="FAQ" transform="translate(-1255.000000, -366.000000)" fill="#05315E">
            <path d="M1260.84653,375.415444 L1260.84653,377.033728 L1260.84653,378.105571 L1279.67742,378.105571 L1279.67742,377.033728 L1279.67742,375.415444 C1279.67742,375.051158 1279.55132,374.735913 1279.29912,374.469698 C1279.04692,374.203488 1278.72467,374.070381 1278.33236,374.070381 L1274.3392,374.070381 C1274.3392,374.070381 1274.34621,373.713105 1274.36022,372.998537 C1274.37423,372.28397 1274.38123,371.352239 1274.38123,370.203323 C1274.38123,369.110454 1273.96791,368.136698 1273.14125,367.282018 C1272.3146,366.427337 1271.34083,366 1270.21995,366 C1269.09905,366 1268.15331,366.413327 1267.3827,367.239982 C1266.61209,368.066642 1266.22679,369.040403 1266.22679,370.161293 C1266.22679,371.254162 1266.21978,372.178883 1266.20577,372.935486 C1266.19176,373.69209 1266.18475,374.070381 1266.18475,374.070381 L1262.19159,374.070381 C1261.8273,374.070381 1261.51206,374.203488 1261.24585,374.469698 C1260.97963,374.735913 1260.84653,375.051158 1260.84653,375.415444 Z M1270.21995,370.03519 C1270.58423,370.03519 1270.89948,370.168298 1271.16569,370.434507 C1271.4319,370.700722 1271.56501,371.015968 1271.56501,371.380254 C1271.56501,371.744545 1271.4319,372.059791 1271.16569,372.326006 C1270.89948,372.592215 1270.58423,372.725317 1270.21995,372.725317 C1269.85565,372.725317 1269.54041,372.592215 1269.27419,372.326006 C1269.00798,372.059791 1268.87488,371.744545 1268.87488,371.380254 C1268.87488,371.015968 1269.00798,370.700722 1269.27419,370.434507 C1269.54041,370.168298 1269.85565,370.03519 1270.21995,370.03519 Z M1282.36755,374.070381 L1282.36755,387.394918 C1282.36755,387.394918 1282.62675,387.156734 1283.14516,386.680351 C1283.66357,386.203972 1284.30107,385.811666 1285.05767,385.50342 L1285.05767,372.725317 C1285.05767,371.996739 1284.78446,371.366249 1284.23802,370.833824 C1283.69159,370.3014 1283.04008,370.03519 1282.28348,370.03519 L1275.68426,370.03519 L1275.68426,372.725317 L1281.02248,372.725317 C1281.38677,372.725317 1281.70202,372.858425 1281.96823,373.124634 C1282.23444,373.390849 1282.36755,373.706095 1282.36755,374.070381 Z M1267.44575,406.309873 L1259.50147,406.309873 C1259.13718,406.309873 1258.82193,406.183774 1258.55572,405.931574 C1258.28951,405.679374 1258.1564,405.357122 1258.1564,404.96481 L1258.1564,374.070381 C1258.1564,373.706095 1258.28951,373.390849 1258.55572,373.124634 C1258.82193,372.858425 1259.13718,372.725317 1259.50147,372.725317 L1264.96579,372.725317 L1264.96579,370.03519 L1258.1564,370.03519 C1257.42783,370.03519 1256.79733,370.3014 1256.26491,370.833824 C1255.73249,371.366249 1255.46628,371.996739 1255.46628,372.725317 L1255.46628,406.309873 C1255.46628,407.066475 1255.73249,407.703973 1256.26491,408.222385 C1256.79733,408.740798 1257.42783,409 1258.1564,409 L1270.38808,409 C1270.10785,408.551643 1269.72956,408.089282 1269.25318,407.612903 C1268.7768,407.136524 1268.17433,406.702185 1267.44575,406.309873 Z M1282.36755,404.96481 C1282.36755,405.357122 1282.23444,405.679374 1281.96823,405.931574 C1281.70202,406.183774 1281.38677,406.309873 1281.02248,406.309873 L1277.36559,406.309873 C1277.02932,406.75823 1276.70007,407.20658 1276.37781,407.654937 C1276.05556,408.103293 1275.75432,408.551643 1275.4741,409 L1282.28348,409 C1283.04008,409 1283.69159,408.740798 1284.23802,408.222385 C1284.78446,407.703973 1285.05767,407.066475 1285.05767,406.309873 L1285.05767,398.071359 C1284.60932,398.435651 1284.16097,398.820953 1283.71261,399.227275 C1283.26425,399.633597 1282.8159,400.074939 1282.36755,400.551323 L1282.36755,404.96481 Z M1288,394.120236 C1287.2434,392.438895 1286.95617,390.869674 1287.13832,389.412513 C1287.32046,387.955352 1287.45357,386.442172 1287.53764,384.872924 C1285.32387,385.965794 1283.32731,387.499989 1281.5479,389.475565 C1279.76848,391.451135 1278.2553,393.405663 1277.00831,395.339202 C1275.76132,397.272736 1274.79457,398.947044 1274.10802,400.362169 C1273.42147,401.777294 1273.0782,402.484846 1273.0782,402.484846 L1269.63147,396.011734 L1262.52786,400.173021 C1263.28446,400.453246 1264.11111,400.859563 1265.00782,401.391988 C1265.90454,401.924407 1266.82926,402.568913 1267.78201,403.325511 C1268.73477,404.082116 1269.70153,404.943788 1270.68231,405.910557 C1271.66309,406.877326 1272.61583,407.907131 1273.54057,409 C1274.18508,407.851086 1275.11681,406.464003 1276.33578,404.83871 C1277.55475,403.213419 1278.86477,401.644192 1280.26589,400.130985 C1281.667,398.617783 1283.06109,397.286746 1284.44819,396.137831 C1285.8353,394.988915 1287.01922,394.316394 1288,394.120236 Z" id="Page-1"></path>
        </g>
    </g>
</svg>