<svg width="65px" height="65px" viewBox="0 0 65 65" version="1.1" xmlns="http://www.w3.org/2000/svg" xmlns:xlink="http://www.w3.org/1999/xlink">
    <!-- Generator: Sketch 41.2 (35397) - http://www.bohemiancoding.com/sketch -->
    <title>Page 1</title>
    <defs></defs>
    <g id="Pages" stroke="none" stroke-width="1" fill="none" fill-rule="evenodd">
        <g id="Florida-Marriage-Nane-Change" transform="translate(-687.000000, -2137.000000)" fill="#50E3C2">
            <g id="Group-8" transform="translate(-1.000000, 2048.000000)">
                <path d="M720.5,89 C716.02081,89 711.8021,89.84635 707.84375,91.53906 C703.8854,93.23178 700.43491,95.54946 697.492188,98.49219 C694.549464,101.43491 692.231779,104.8854 690.539062,108.84375 C688.846346,112.8021 688,117.02081 688,121.5 C688,125.97919 688.846346,130.1979 690.539062,134.15625 C692.231779,138.1146 694.549464,141.56509 697.492188,144.507812 C700.43491,147.450536 703.8854,149.768221 707.84375,151.460938 C711.8021,153.153654 716.02081,154 720.5,154 C724.97919,154 729.1979,153.153654 733.15625,151.460938 C737.1146,149.768221 740.56509,147.450536 743.50781,144.507812 C746.45054,141.56509 748.76822,138.1146 750.46094,134.15625 C752.15365,130.1979 753,125.97919 753,121.5 C753,117.02081 752.15365,112.8021 750.46094,108.84375 C748.76822,104.8854 746.45054,101.43491 743.50781,98.49219 C740.56509,95.54946 737.1146,93.23178 733.15625,91.53906 C729.1979,89.84635 724.97919,89 720.5,89 Z M720.5,149 C716.6979,149 713.13022,148.283861 709.79688,146.851562 C706.46352,145.419264 703.54689,143.45314 701.04688,140.95312 C698.54686,138.45311 696.580736,135.53647 695.148438,132.20312 C693.716139,128.86978 693,125.3021 693,121.5 C693,117.6979 693.716139,114.13022 695.148438,110.79688 C696.580736,107.46353 698.54686,104.54689 701.04688,102.04688 C703.54689,99.54686 706.46352,97.58074 709.79688,96.14844 C713.13022,94.71614 716.6979,94 720.5,94 C724.3021,94 727.86978,94.71614 731.20312,96.14844 C734.53648,97.58074 737.45311,99.54686 739.95312,102.04688 C742.45314,104.54689 744.41926,107.46353 745.85156,110.79688 C747.28386,114.13022 748,117.6979 748,121.5 C748,125.3021 747.28386,128.86978 745.85156,132.20312 C744.41926,135.53647 742.45314,138.45311 739.95312,140.95312 C737.45311,143.45314 734.53648,145.419264 731.20312,146.851562 C727.86978,148.283861 724.3021,149 720.5,149 Z M716.98438,111.96875 C717.50521,111.65625 717.89583,111.33073 718.15625,110.99219 C718.41667,110.65364 718.54688,110.27604 718.54688,109.85938 C718.54688,109.59896 718.50781,109.36458 718.42969,109.15625 C718.35156,108.94792 718.20833,108.73958 718,108.53125 C717.84375,108.375 717.64844,108.25781 717.41406,108.17969 C717.17969,108.10156 716.93229,108.0625 716.67188,108.0625 C715.99479,108.0625 715.17448,108.25781 714.21094,108.64844 C713.24739,109.03906 712.16667,109.625 710.96875,110.40625 C709.51041,111.34375 708.22136,112.38541 707.10156,113.53125 C705.98177,114.67709 704.97917,115.92708 704.09375,117.28125 C703.26041,118.63542 702.63542,119.97656 702.21875,121.30469 C701.80208,122.63282 701.59375,123.94791 701.59375,125.25 C701.59375,125.875 701.64583,126.5 701.75,127.125 C701.85417,127.75 702.03646,128.34896 702.29688,128.92188 C702.50521,129.54688 702.77864,130.11979 703.11719,130.64062 C703.45573,131.16146 703.80729,131.63021 704.17188,132.04688 C705.00521,132.98438 705.92968,133.6875 706.94531,134.15625 C707.96094,134.625 709.04166,134.85938 710.1875,134.85938 C711.43751,134.85938 712.55729,134.65104 713.54688,134.23438 C714.53646,133.81771 715.42187,133.16667 716.20312,132.28125 C716.51563,131.96875 716.80208,131.60417 717.0625,131.1875 C717.32292,130.77083 717.53125,130.32813 717.6875,129.85938 C717.89583,129.39062 718.03906,128.92188 718.11719,128.45312 C718.19531,127.98437 718.23438,127.51563 718.23438,127.04688 C718.23438,126.05729 718.10417,125.13282 717.84375,124.27344 C717.58333,123.41406 717.16667,122.64584 716.59375,121.96875 C716.07291,121.23958 715.44792,120.66667 714.71875,120.25 C713.98958,119.83333 713.1823,119.57292 712.29688,119.46875 L711.59375,119.39062 L711.125,119.3125 C710.70833,119.26042 710.39583,119.15625 710.1875,119 C709.97917,118.84375 709.875,118.63542 709.875,118.375 C709.875,118.11458 710.01823,117.76302 710.30469,117.32031 C710.59115,116.8776 710.99479,116.36979 711.51562,115.79688 C712.08854,115.17187 712.83072,114.54688 713.74219,113.92188 C714.65365,113.29687 715.73437,112.64584 716.98438,111.96875 Z M736.75,111.96875 C737.27084,111.65625 737.66146,111.33073 737.92188,110.99219 C738.18229,110.65364 738.3125,110.27604 738.3125,109.85938 C738.3125,109.59896 738.26042,109.36458 738.15625,109.15625 C738.05208,108.94792 737.92188,108.73958 737.76562,108.53125 C737.55729,108.375 737.34896,108.25781 737.14062,108.17969 C736.93229,108.10156 736.67188,108.0625 736.35938,108.0625 C735.68229,108.0625 734.875,108.25781 733.9375,108.64844 C733,109.03906 731.90626,109.625 730.65625,110.40625 C729.24999,111.34375 727.97396,112.38541 726.82812,113.53125 C725.68229,114.67709 724.69271,115.92708 723.85938,117.28125 C722.97395,118.63542 722.32292,119.97656 721.90625,121.30469 C721.48958,122.63282 721.28125,123.94791 721.28125,125.25 C721.28125,125.875 721.33333,126.5 721.4375,127.125 C721.54167,127.75 721.72396,128.34896 721.98438,128.92188 C722.19271,129.54688 722.45312,130.11979 722.76562,130.64062 C723.07813,131.16146 723.44271,131.63021 723.85938,132.04688 C724.69271,132.98438 725.61718,133.6875 726.63281,134.15625 C727.64844,134.625 728.7552,134.85938 729.95312,134.85938 C731.15105,134.85938 732.25781,134.65104 733.27344,134.23438 C734.28907,133.81771 735.1875,133.16667 735.96875,132.28125 C736.28125,131.96875 736.55469,131.60417 736.78906,131.1875 C737.02344,130.77083 737.24479,130.32813 737.45312,129.85938 C737.66146,129.39062 737.80469,128.92188 737.88281,128.45312 C737.96094,127.98437 738,127.51563 738,127.04688 C738,126.05729 737.85677,125.13282 737.57031,124.27344 C737.28385,123.41406 736.88021,122.64584 736.35938,121.96875 C735.78646,121.23958 735.13542,120.66667 734.40625,120.25 C733.67708,119.83333 732.8698,119.57292 731.98438,119.46875 L731.35938,119.39062 L730.8125,119.3125 C730.39583,119.26042 730.08333,119.15625 729.875,119 C729.66667,118.84375 729.5625,118.63542 729.5625,118.375 C729.5625,118.11458 729.70573,117.76302 729.99219,117.32031 C730.27865,116.8776 730.68229,116.36979 731.20312,115.79688 C731.77604,115.17187 732.53125,114.53386 733.46875,113.88281 C734.40625,113.23177 735.49999,112.59375 736.75,111.96875 Z" id="Page-1"></path>
            </g>
        </g>
    </g>
</svg>