<svg width="100px" height="55px" viewBox="0 0 100 55" version="1.1" xmlns="http://www.w3.org/2000/svg" xmlns:xlink="http://www.w3.org/1999/xlink">
    <!-- Generator: Sketch 41.2 (35397) - http://www.bohemiancoding.com/sketch -->
    <title>196 right arrow direction orientation retro</title>
    <defs></defs>
    <g id="Pages" stroke="none" stroke-width="1" fill="none" fill-rule="evenodd">
        <g id="Homepage" transform="translate(-1021.000000, -3026.000000)" fill="#FFFFFF">
            <g id="Group-9" transform="translate(435.000000, 2970.000000)">
                <g id="196-right-arrow-direction-orientation-retro" transform="translate(586.000000, 56.000000)">
                    <g id="196---Right---(arrow,-direction,-orientation,-Retro)">
                        <g id="Page-1">
                            <g id="Icons">
                                <g id="196---Right---(arrow,-direction,-orientation,-Retro)">
                                    <polygon id="Fill-2" points="100 27.5 61.8525022 0 61.8525022 18.90625 41.0447761 18.90625 41.0447761 36.09375 61.8525022 36.09375 61.8525022 55"></polygon>
                                    <path d="M30.9701493,18.5810811 C29.1231343,18.5810811 27.6119403,20.1195946 27.6119403,22 L27.6119403,32.2567568 C27.6119403,34.1371622 29.1231343,35.6756757 30.9701493,35.6756757 C32.8171642,35.6756757 34.3283582,34.1371622 34.3283582,32.2567568 L34.3283582,22 C34.3283582,20.1195946 32.8171642,18.5810811 30.9701493,18.5810811" id="Fill-3"></path>
                                    <path d="M16.7910448,18.5810811 C14.9440299,18.5810811 13.4328358,20.1195946 13.4328358,22 L13.4328358,32.2567568 C13.4328358,34.1371622 14.9440299,35.6756757 16.7910448,35.6756757 C18.6380597,35.6756757 20.1492537,34.1371622 20.1492537,32.2567568 L20.1492537,22 C20.1492537,20.1195946 18.6380597,18.5810811 16.7910448,18.5810811" id="Fill-5"></path>
                                    <path d="M3.35820896,18.5810811 C1.51119403,18.5810811 0,20.1195946 0,22 L0,32.2567568 C0,34.1371622 1.51119403,35.6756757 3.35820896,35.6756757 C5.20522388,35.6756757 6.71641791,34.1371622 6.71641791,32.2567568 L6.71641791,22 C6.71641791,20.1195946 5.20522388,18.5810811 3.35820896,18.5810811" id="Fill-7"></path>
                                </g>
                            </g>
                        </g>
                    </g>
                </g>
            </g>
        </g>
    </g>
</svg>