<svg width="125px" height="114px" viewBox="0 0 125 114" version="1.1" xmlns="http://www.w3.org/2000/svg" xmlns:xlink="http://www.w3.org/1999/xlink">
    <!-- Generator: Sketch 41.2 (35397) - http://www.bohemiancoding.com/sketch -->
    <title>23 marriage romance lifestyle love sex outline</title>
    <defs></defs>
    <g id="Pages" stroke="none" stroke-width="1" fill="none" fill-rule="evenodd">
        <g id="Florida-Marriage-Nane-Change" transform="translate(-1060.000000, -365.000000)" fill="#05315E">
            <g id="23-marriage-romance-lifestyle-love-sex-outline" transform="translate(1060.000000, 365.000000)">
                <g id="23--Marriage--(romance,-lifestyle,-love,-sex,-outline)">
                    <g id="Page-1">
                        <g id="Romance-&amp;-Lifestyle-Outline">
                            <g id="23--Marriage--(romance,-lifestyle,-love,-sex,-outline)">
                                <path d="M79.4081035,33.7777778 L64.0628326,14.6643904 L71.0491181,4.22222222 L98.4424073,4.22222222 L105.428693,14.6643904 L90.0834219,33.7777778 L79.4081035,33.7777778 Z M77.3715575,38 L92.1199679,38 L110.673002,14.8911652 L100.710135,0 L68.7813903,0 L58.8185233,14.8911652 L77.3715575,38 Z" id="Stroke-285"></path>
                                <polygon id="Stroke-286" points="61.440678 16.8888889 108.050847 16.8888889 108.050847 12.6666667 61.440678 12.6666667"></polygon>
                                <polygon id="Stroke-287" points="98.9557347 13.2849968 86.2438703 0.618330129 83.2476551 3.60389209 95.9595195 16.2705588"></polygon>
                                <polygon id="Stroke-288" points="73.5320059 16.2705588 86.2438703 3.60389209 83.2476551 0.618330129 70.5357907 13.2849968"></polygon>
                                <polygon id="Stroke-289" points="86.2438703 25.9516635 73.5320059 13.2849968 70.5357907 16.2705588 83.2476551 28.9372254"></polygon>
                                <polygon id="Stroke-290" points="86.2438703 28.9372254 98.9557347 16.2705588 95.9595195 13.2849968 83.2476551 25.9516635"></polygon>
                                <polygon id="Stroke-291" points="72.0338983 29.5555556 97.4576271 29.5555556 97.4576271 25.3333333 72.0338983 25.3333333"></polygon>
                                <path d="M53.5930003,95.423446 C49.5852673,97.8939737 45.0156644,99.2222222 40.2542373,99.2222222 C26.2124677,99.2222222 14.8305085,87.8807322 14.8305085,73.8888889 C14.8305085,59.8970456 26.2124677,48.5555556 40.2542373,48.5555556 C45.0156644,48.5555556 49.5852673,49.8838041 53.5930003,52.3543318 C56.4003665,54.0849336 58.843048,56.3410496 60.7884814,58.9979688 C63.9484652,63.3176897 65.6779661,68.4747 65.6779661,73.8888889 C65.6779661,79.3030778 63.9484652,84.4600881 60.7879219,88.7805734 L59.8778147,90.0246966 L60.7884814,91.2684132 C63.0564333,94.3658026 65.9044167,96.9962646 69.1777328,99.0141014 L70.7927309,100.009668 L71.9618995,98.5184919 C77.4643918,91.500528 80.5084746,82.9159079 80.5084746,73.8888889 C80.5084746,64.8618699 77.4643918,56.2772498 71.9618995,49.2592859 C69.6105692,46.2593044 66.8429023,43.6058221 63.7392705,41.3754985 C56.916573,36.4679396 48.7775198,33.7777778 40.2542373,33.7777778 C18.055887,33.7777778 0,51.7687761 0,73.8888889 C0,96.0076011 18.0566001,114 40.2542373,114 C48.7775198,114 56.916573,111.309838 63.7400433,106.401724 L66.1208828,104.689189 L63.7392705,102.977721 C60.9601442,100.980592 58.4823889,98.6050609 56.377377,95.9193485 L55.208272,94.4277276 L53.5930003,95.423446 Z M58.8803473,104.553797 C53.2986433,107.944772 46.9088526,109.777778 40.2542373,109.777778 C20.3967897,109.777778 4.23728814,93.6757322 4.23728814,73.8888889 C4.23728814,54.1006813 20.3960402,38 40.2542373,38 C47.8755156,38 55.1494432,40.4042161 61.2599567,44.7995015 C64.0398558,46.7971855 66.5176111,49.1727168 68.622623,51.8584293 C73.5504867,58.143503 76.2711864,65.8161504 76.2711864,73.8888889 C76.2711864,81.2980446 73.9793887,88.3701813 69.7929874,94.3416419 C68.0573803,93.0800312 66.488305,91.6049344 65.1226358,89.9510426 C68.2263128,85.1980084 69.9152542,79.6664454 69.9152542,73.8888889 C69.9152542,67.5693593 67.8945829,61.5441395 64.2120781,56.510129 C61.9435667,53.4119752 59.0955833,50.7815132 55.8222672,48.7636764 C51.1530833,45.8854038 45.813461,44.3333333 40.2542373,44.3333333 C23.8722781,44.3333333 10.5932203,57.5651766 10.5932203,73.8888889 C10.5932203,90.2126011 23.8722781,103.444444 40.2542373,103.444444 C45.18268,103.444444 49.9385285,102.224605 54.2076459,99.94231 C55.6368038,101.603224 57.1994611,103.145237 58.8803473,104.553797 Z" id="Stroke-312"></path>
                                <path d="M84.7457627,33.7777778 C76.2224802,33.7777778 68.083427,36.4679396 61.2599567,41.3760541 L58.8791172,43.0885892 L61.2607295,44.8000571 C64.0398558,46.7971855 66.5176111,49.1727168 68.622623,51.8584293 L69.791728,53.3500502 L71.4069997,52.3543318 C75.413998,49.884257 79.9856584,48.5555556 84.7457627,48.5555556 C98.7875323,48.5555556 110.169492,59.8970456 110.169492,73.8888889 C110.169492,87.8807322 98.7875323,99.2222222 84.7457627,99.2222222 C79.9856584,99.2222222 75.413998,97.8935208 71.4069997,95.423446 C68.5996335,93.6928442 66.156952,91.4367282 64.2115186,88.779809 C61.0515348,84.4600881 59.3220339,79.3030778 59.3220339,73.8888889 C59.3220339,68.4747 61.0515348,63.3176897 64.2120781,58.9972043 L65.1221853,57.7530812 L64.2115186,56.5093646 C61.9435667,53.4119752 59.0955833,50.7815132 55.8222672,48.7636764 L54.2072691,47.7681103 L53.0381005,49.2592859 C47.5356082,56.2772498 44.4915254,64.8618699 44.4915254,73.8888889 C44.4915254,82.9159079 47.5356082,91.500528 53.0381005,98.5184919 C55.3894308,101.518473 58.1570977,104.171956 61.2607295,106.402279 C68.083427,111.309838 76.2224802,114 84.7457627,114 C106.9434,114 125,96.0076011 125,73.8888889 C125,51.7701766 106.9434,33.7777778 84.7457627,33.7777778 Z M59.8773642,57.8267352 C56.7736872,62.5797693 55.0847458,68.1113324 55.0847458,73.8888889 C55.0847458,80.2084184 57.1054171,86.2336383 60.7879219,91.2676488 C63.0564333,94.3658026 65.9044167,96.9962646 69.1777328,99.0141014 C73.8462168,101.891943 79.1879069,103.444444 84.7457627,103.444444 C101.127722,103.444444 114.40678,90.2126011 114.40678,73.8888889 C114.40678,57.5651766 101.127722,44.3333333 84.7457627,44.3333333 C79.8185959,44.3333333 75.0613186,45.5534802 70.7923779,47.8354954 C69.3632135,46.1745706 67.8005482,44.6325484 66.1196527,43.2239804 C71.7013567,39.8330055 78.0911474,38 84.7457627,38 C104.60321,38 120.762712,54.1020456 120.762712,73.8888889 C120.762712,93.6757322 104.60321,109.777778 84.7457627,109.777778 C77.1244844,109.777778 69.8505568,107.373562 63.7400433,102.978276 C60.9601442,100.980592 58.4823889,98.6050609 56.377377,95.9193485 C51.4495133,89.6342748 48.7288136,81.9616274 48.7288136,73.8888889 C48.7288136,66.4797331 51.0206113,59.4075965 55.2070126,53.4361359 C56.9426197,54.6977466 58.511695,56.1728434 59.8773642,57.8267352 Z" id="Stroke-313"></path>
                            </g>
                        </g>
                    </g>
                </g>
            </g>
        </g>
    </g>
</svg>