<svg width="111px" height="107px" viewBox="0 0 111 107" version="1.1" xmlns="http://www.w3.org/2000/svg" xmlns:xlink="http://www.w3.org/1999/xlink">
    <!-- Generator: Sketch 41.2 (35397) - http://www.bohemiancoding.com/sketch -->
    <title>155 location pin interaction communication essential solid</title>
    <defs></defs>
    <g id="Pages" stroke="none" stroke-width="1" fill="none" fill-rule="evenodd">
        <g id="Homepage" transform="translate(-335.000000, -1325.000000)" fill="#0096E6">
            <g id="155-location-pin-interaction-communication-essential-solid" transform="translate(335.000000, 1325.000000)">
                <g id="155---Location-Pin-(interaction,-communication,-essential,-solid)">
                    <g id="Page-1">
                        <g id="Icons">
                            <g id="Location-Pin">
                                <path d="M77.8271129,65.9833333 L83.2822258,58.1366667 C93.5855323,44.4567167 92.0941935,21.9688833 80.091871,10.0169833 C73.6091129,3.55775 64.9887097,0 55.8168871,0 C46.6468548,0 38.0246613,3.55775 31.5401129,10.0169833 C19.5395806,21.9688833 18.0482419,44.4567167 28.310371,58.0813833 L33.8030806,65.9833333 L20.3523871,65.9833333 L0.744774194,107 L110.255226,107 L90.6476129,65.9833333 L77.8271129,65.9833333 Z M56.1337742,21.4 C63.042629,21.4 68.6660323,27.00145 68.6660323,33.8833333 C68.6660323,40.7652167 63.042629,46.3666667 56.1337742,46.3666667 C49.223129,46.3666667 43.6015161,40.7652167 43.6015161,33.8833333 C43.6015161,27.00145 49.223129,21.4 56.1337742,21.4 L56.1337742,21.4 Z M22.6153548,69.55 L36.2826774,69.55 L55.8168871,97.6499833 L75.3493065,69.55 L88.3846452,69.55 L104.583484,103.433333 L6.41651613,103.433333 L22.6153548,69.55 L22.6153548,69.55 Z" id="Fill-1057"></path>
                            </g>
                        </g>
                    </g>
                </g>
            </g>
        </g>
    </g>
</svg>