<svg width="136px" height="149px" viewBox="0 0 136 149" version="1.1" xmlns="http://www.w3.org/2000/svg" xmlns:xlink="http://www.w3.org/1999/xlink">
    <!-- Generator: Sketch 41.2 (35397) - http://www.bohemiancoding.com/sketch -->
    <title>CLOCK</title>
    <desc>Created with Sketch.</desc>
    <defs></defs>
    <g id="Pages" stroke="none" stroke-width="1" fill="none" fill-rule="evenodd">
        <g id="Florida-Landing-Page" transform="translate(-245.000000, -1513.000000)">
            <g id="Group-4-Copy" transform="translate(0.000000, 1265.000000)">
                <g id="Green">
                    <g id="Group-2" transform="translate(154.000000, 239.000000)">
                        <g id="CLOCK" transform="translate(91.000000, 9.000000)">
                            <path d="M76.2734802,12.2977155 L79.9430737,12.2977155 C83.3197962,12.2977155 86.0590627,9.54372762 86.0590627,6.14885777 C86.0590627,2.75398793 83.3197962,0 79.9430737,0 L57.9255129,0 C54.5487903,0 51.8095238,2.75398793 51.8095238,6.14885777 C51.8095238,9.54372762 54.5487903,12.2977155 57.9255129,12.2977155 L61.5951064,12.2977155 L61.5951064,20.0760202 L64.2260275,19.87594 C65.963537,19.7438033 67.4789235,19.6763449 68.9342933,19.6763449 C70.389663,19.6763449 71.9050496,19.7438033 73.6425591,19.87594 L76.2734802,20.0760202 L76.2734802,12.2977155 Z" id="Path" fill="#05315E"></path>
                            <path d="M66.4878976,7.37862933 L57.9255129,7.37862933 C57.2510043,7.37862933 56.7023151,6.82699132 56.7023151,6.14885777 C56.7023151,5.47072423 57.2510043,4.91908622 57.9255129,4.91908622 L79.9430737,4.91908622 C80.6175822,4.91908622 81.1662715,5.47072423 81.1662715,6.14885777 C81.1662715,6.82699132 80.6175822,7.37862933 79.9430737,7.37862933 L71.3806889,7.37862933 L71.3806889,14.811492 C70.5396365,14.7755337 69.7314371,14.7572587 68.9342933,14.7572587 C68.1371494,14.7572587 67.3289501,14.7755337 66.4878976,14.811492 L66.4878976,7.37862933 Z" id="Path" fill="#05315E"></path>
                            <polygon id="Path" fill="#05315E" points="115.242378 37.6853822 123.890386 28.9908973 120.43066 25.512578 111.782652 34.2070629"></polygon>
                            <polygon id="Path" fill="#05315E" points="111.782652 34.2070629 115.242378 37.6853822 123.890386 28.9908973 120.43066 25.512578"></polygon>
                            <polygon id="Path" fill="#05315E" points="125.621867 27.2515198 122.161351 23.7736362 125.621867 20.2945229 129.08116 23.7736363"></polygon>
                            <polygon id="Path" fill="#05315E" points="125.622479 34.2075434 136 23.7742511 125.622479 13.3372696 115.241288 23.7742512"></polygon>
                            <polygon id="Path" fill="#05315E" points="66.4878976 17.2168018 66.4878976 24.5954311 71.3806889 24.5954311 71.3806889 17.2168018"></polygon>
                            <polygon id="Path" fill="#05315E" points="71.3806889 17.2168018 66.4878976 17.2168018 66.4878976 24.5954311 71.3806889 24.5954311"></polygon>
                            <polygon id="Path" fill="#05315E" points="66.4878976 137.734414 66.4878976 145.113043 71.3806889 145.113043 71.3806889 137.734414"></polygon>
                            <polygon id="Path" fill="#05315E" points="71.3806889 137.734414 66.4878976 137.734414 66.4878976 145.113043 71.3806889 145.113043"></polygon>
                            <polygon id="Path" fill="#05315E" points="132.141817 78.7053795 124.80263 78.7053795 124.80263 83.6244657 132.141817 83.6244657"></polygon>
                            <polygon id="Path" fill="#05315E" points="132.141817 83.6244657 132.141817 78.7053795 124.80263 78.7053795 124.80263 83.6244657"></polygon>
                            <polygon id="Path" fill="#05315E" points="98.2198451 24.5539467 94.5502516 30.9462993 98.7879097 33.4051866 102.457503 27.0128341"></polygon>
                            <polygon id="Path" fill="#05315E" points="102.457503 27.0128341 98.2198451 24.5539467 94.5502516 30.9462993 98.7879097 33.4051866"></polygon>
                            <polygon id="Path" fill="#05315E" points="124.844246 111.008972 118.48851 107.319657 116.042061 111.57968 122.397797 115.268994"></polygon>
                            <polygon id="Path" fill="#05315E" points="122.397797 115.268994 124.844246 111.008972 118.48851 107.319657 116.042061 111.57968"></polygon>
                            <polygon id="Path" fill="#05315E" points="94.5502516 131.383546 98.2198451 137.775899 102.457503 135.317011 98.7879097 128.924659"></polygon>
                            <polygon id="Path" fill="#05315E" points="98.7879097 128.924659 94.5502516 131.383546 98.2198451 137.775899 102.457503 135.317011"></polygon>
                            <polygon id="Path" fill="#05315E" points="122.397797 47.060851 116.042061 50.7501657 118.48851 55.0101881 124.844246 51.3208734"></polygon>
                            <polygon id="Path" fill="#05315E" points="124.844246 51.3208734 122.397797 47.060851 116.042061 50.7501657 118.48851 55.0101881"></polygon>
                            <polygon id="Path-2" fill="#FFFFFF" points="63.5498047 85.5097656 67.1748047 78.3457031 91.2783203 62.5107422 91.2783203 67.0917969 71.7207031 90.6738281 64.7861328 88.8398438"></polygon>
                            <path d="M72.7617967,86.7785992 C71.372982,88.6878511 68.6020179,88.9054947 66.9288428,87.2318072 C65.255796,85.5597499 65.4734762,82.7861383 67.3875049,81.393008 L86.8282266,67.3263261 L72.7617967,86.7785992 Z M99.8093971,57.7808076 L108.8,45.3478261 L64.4953428,77.4052699 C60.1289545,80.5833441 59.6328657,86.9043479 63.4470276,90.7162531 C67.2593755,94.5297689 73.5753376,94.0336856 76.7483138,89.6716471 L99.8093971,57.7808076 Z" id="Stroke-17" fill="#05315E"></path>
                            <path d="M53.1047619,147.291406 C58.0165364,148.420699 63.0181072,149 68.0639013,149 C104.868474,149 134.704762,119.126349 134.704762,82.273913 C134.704762,45.42311 104.867636,15.5478261 68.0639013,15.5478261 C63.0181072,15.5478261 58.0165364,16.1271275 53.1047619,17.2564201 L54.2095071,22.0737255 C58.7625733,21.0269055 63.3937965,20.4904992 68.0639013,20.4904992 C102.14136,20.4904992 129.768402,48.152873 129.768402,82.273913 C129.768402,116.396556 102.142227,144.057327 68.0639013,144.057327 C63.3937965,144.057327 58.7625733,143.520921 54.2095071,142.474101 L53.1047619,147.291406 Z" id="Path" fill="#05315E"></path>
                            <polygon id="Path" fill="#FFFFFF" points="34.9714286 40.1652174 46.6285714 40.1652174 46.6285714 34.9826087 34.9714286 34.9826087"></polygon>
                            <polygon id="Path" fill="#FFFFFF" points="22.0190476 57.0086957 46.6285714 57.0086957 46.6285714 51.826087 22.0190476 51.826087"></polygon>
                            <polygon id="Path" fill="#FFFFFF" points="10.3619048 73.8521739 46.6285714 73.8521739 46.6285714 68.6695652 10.3619048 68.6695652"></polygon>
                            <polygon id="Path" fill="#FFFFFF" points="0 91.9913043 46.6285714 91.9913043 46.6285714 86.8086957 0 86.8086957"></polygon>
                            <polygon id="Path" fill="#FFFFFF" points="14.247619 108.834783 46.6285714 108.834783 46.6285714 103.652174 14.247619 103.652174"></polygon>
                            <polygon id="Path" fill="#FFFFFF" points="29.7904762 120.495652 29.7904762 125.678261 46.6285714 125.678261 46.6285714 120.495652"></polygon>
                        </g>
                    </g>
                </g>
            </g>
        </g>
    </g>
</svg>