<svg width="33px" height="37px" viewBox="0 0 33 37" version="1.1" xmlns="http://www.w3.org/2000/svg" xmlns:xlink="http://www.w3.org/1999/xlink">
    <!-- Generator: Sketch 41.2 (35397) - http://www.bohemiancoding.com/sketch -->
    <title>Page 1</title>
    <defs></defs>
    <g id="Pages" stroke="none" stroke-width="1" fill="none" fill-rule="evenodd">
        <g id="FAQ" transform="translate(-144.000000, -2649.000000)" fill="#05315E">
            <path d="M177,2665.46136 C177,2663.19437 176.562064,2661.0691 175.686183,2659.08548 C174.810301,2657.10186 173.625301,2655.36301 172.131148,2653.86885 C170.636994,2652.3747 168.885256,2651.1897 166.875878,2650.31382 C164.866501,2649.43794 162.72835,2649 160.461358,2649 C158.194366,2649 156.056216,2649.43794 154.046838,2650.31382 C152.037461,2651.1897 150.311482,2652.3747 148.868852,2653.86885 C147.3747,2655.36301 146.1897,2657.10186 145.313817,2659.08548 C144.437935,2661.0691 144,2663.19437 144,2665.46136 L144,2672.18501 L144.077283,2672.18501 L144.077283,2672.49415 L144.077283,2672.726 C144.077283,2673.80797 144.28337,2674.8384 144.69555,2675.81733 C145.10773,2676.79626 145.674469,2677.64637 146.395785,2678.36768 C147.065577,2679.089 147.877044,2679.65573 148.830211,2680.06792 C149.783378,2680.4801 150.800932,2680.68618 151.882904,2680.68618 L151.882904,2664.84309 C151.161589,2664.84309 150.478924,2664.92037 149.834897,2665.07494 C149.190866,2665.22951 148.611244,2665.46136 148.096019,2665.77049 C147.529271,2666.07963 147.014054,2666.45316 146.550351,2666.8911 C146.086649,2667.32904 145.674475,2667.83138 145.313817,2668.39813 L145.313817,2665.46136 C145.313817,2663.40046 145.713111,2661.44263 146.51171,2659.58782 C147.310308,2657.73301 148.405145,2656.13584 149.796253,2654.79625 C151.13584,2653.40515 152.733011,2652.31031 154.587822,2651.51171 C156.442633,2650.71311 158.400457,2650.31382 160.461358,2650.31382 C162.573779,2650.31382 164.544487,2650.71311 166.373539,2651.51171 C168.202585,2652.31031 169.812641,2653.40515 171.203747,2654.79625 C172.594853,2656.13584 173.68969,2657.73301 174.488288,2659.58782 C175.286891,2661.44263 175.686183,2663.40046 175.686183,2665.46136 L175.686183,2668.39813 C175.325525,2667.8829 174.913349,2667.40633 174.449649,2666.96838 C173.985948,2666.53044 173.470729,2666.15691 172.903981,2665.84778 C172.337233,2665.53864 171.731851,2665.29391 171.08782,2665.11358 C170.443793,2664.93325 169.786887,2664.84309 169.117096,2664.84309 L169.039813,2664.84309 L169.039813,2680.68618 L169.117096,2680.68618 C169.477753,2680.68618 169.799767,2680.66042 170.083141,2680.6089 C170.36651,2680.55738 170.688523,2680.48009 171.04918,2680.37705 C170.533956,2680.89227 170.005857,2681.34309 169.464874,2681.72951 C168.923885,2682.11593 168.344267,2682.48946 167.725995,2682.85012 C167.159247,2683.15925 166.540985,2683.42974 165.871194,2683.66159 C165.201404,2683.89344 164.531618,2684.11241 163.861827,2684.3185 L163.861827,2682 L157.215457,2682 L157.215457,2685.94145 L163.784543,2685.94145 L163.784543,2685.7096 C164.814992,2685.45199 165.819666,2685.12998 166.798595,2684.74356 C167.777524,2684.35714 168.704915,2683.8548 169.580796,2683.23653 C170.456678,2682.66979 171.268146,2682.02576 172.01522,2681.30445 C172.762299,2680.58313 173.4192,2679.78455 173.985948,2678.90867 C174.449649,2678.54801 174.861825,2678.14872 175.222482,2677.71078 C175.58314,2677.27283 175.892268,2676.7705 176.149883,2676.20375 C176.407497,2675.68852 176.613583,2675.13466 176.76815,2674.54215 C176.922717,2673.94964 177,2673.34427 177,2672.726 L177,2672.45551 L177,2672.18501 L177,2665.46136 Z M150.569087,2666.31148 L150.569087,2679.2178 C149.847772,2679.06323 149.165106,2678.79274 148.521077,2678.40632 C147.877046,2678.0199 147.323187,2677.54333 146.859485,2676.97658 C146.395782,2676.35831 146.02225,2675.70141 145.738876,2675.00585 C145.455502,2674.3103 145.313817,2673.55035 145.313817,2672.726 C145.313817,2671.95316 145.455502,2671.20609 145.738876,2670.48478 C146.02225,2669.76346 146.395782,2669.11944 146.859485,2668.55269 C147.323187,2667.98595 147.877046,2667.50937 148.521077,2667.12295 C149.165106,2666.73653 149.847772,2666.46604 150.569087,2666.31148 Z M162.470726,2684.62763 L158.529274,2684.62763 L158.529274,2683.31382 L162.470726,2683.31382 L162.470726,2684.62763 Z M170.35363,2679.2178 L170.35363,2666.31148 C171.126469,2666.46604 171.834894,2666.73653 172.47892,2667.12295 C173.122952,2667.50937 173.676815,2667.98595 174.140515,2668.55269 C174.604215,2669.11944 174.977753,2669.76346 175.261122,2670.48478 C175.544496,2671.20609 175.686183,2671.95316 175.686183,2672.726 C175.686183,2673.55035 175.544496,2674.3103 175.261122,2675.00585 C174.977753,2675.70141 174.604215,2676.35831 174.140515,2676.97658 C173.676815,2677.54333 173.122952,2678.0199 172.47892,2678.40632 C171.834894,2678.79274 171.126469,2679.06323 170.35363,2679.2178 Z" id="Page-1"></path>
        </g>
    </g>
</svg>