<svg width="112px" height="108px" viewBox="0 0 112 108" version="1.1" xmlns="http://www.w3.org/2000/svg" xmlns:xlink="http://www.w3.org/1999/xlink">
    <!-- Generator: Sketch 41.2 (35397) - http://www.bohemiancoding.com/sketch -->
    <title>328 edit profiles interaction communication interface solid</title>
    <defs></defs>
    <g id="Pages" stroke="none" stroke-width="1" fill="none" fill-rule="evenodd">
        <g id="Homepage" transform="translate(-649.000000, -1323.000000)" fill="#0096E6">
            <g id="328-edit-profiles-interaction-communication-interface-solid" transform="translate(649.000000, 1323.000000)">
                <g id="328---Edit-Profiles-(interaction,-communication,-interface,-solid)">
                    <g id="Page-1">
                        <g id="Icons">
                            <g id="Edit-Profiles">
                                <g id="322-click-profiles-interaction-communication-interface-webby">
                                    <g id="322---Click-Profiles-(interaction,-communication,-interface,-webby)">
                                        <g id="Page-1">
                                            <g id="Icons">
                                                <g id="Click-Profiles">
                                                    <path d="M110.808357,77.0797607 L76.1537224,64.3224537 L88.9193187,98.9545854 L96.2165246,84.3722282 L110.808357,77.0797607 Z M100.926661,77.6272938 L93.2874754,81.4450809 L89.4672076,89.0793055 L82.7841022,70.9485281 L100.926661,77.6272938 Z" id="Stroke-2876"></path>
                                                    <polygon id="Stroke-2878" points="93.3625972 84.2971551 108.645685 99.5703188 111.424491 96.7933176 96.1414028 81.520154"></polygon>
                                                    <path d="M50.738899,78.0730416 C50.7939554,78.1230579 50.8352007,78.1605275 50.8710567,78.201229 L50.738899,78.0730416 Z M55.0215331,51.8644119 C55.0265107,51.877794 55.0286998,51.8836794 55.0280935,51.8816862 C55.0259047,51.8759277 55.0237179,51.8701696 55.0215331,51.8644119 Z M56.1567778,78.0190629 C59.0893515,76.4198334 60.9122807,73.3512291 60.9122807,70.0134545 L60.9122807,62.1252578 L60.4566616,61.5790414 C60.2472928,61.3280408 59.8528692,60.813322 59.3349642,60.064164 C58.4593051,58.7975087 57.581174,57.3532868 56.7615998,55.7617879 C56.6769426,55.5967636 56.6769426,55.5967636 56.5923539,55.4292697 C56.3188825,54.8831978 56.083316,54.3820703 55.8445949,53.8484837 C55.4798155,53.0218426 55.2441044,52.449978 55.0280935,51.8816862 C54.7931701,51.2449157 54.6076202,50.7004732 54.4108822,50.0802385 C54.315511,49.7718371 54.315511,49.7718371 54.2715954,49.6246916 C54.0523801,48.8914926 53.8893519,48.2898996 53.7559595,47.705658 L53.5781978,46.927085 L52.907144,46.4934888 C51.7793622,45.7647813 51.0877193,44.5358337 51.0877193,43.2 L51.0877193,35.3454545 C51.0877193,34.2407531 51.5677655,33.2047197 52.4046879,32.4493693 L53.0526316,31.8645784 L53.0526316,18.9394601 L52.2920038,18.3498587 C48.5271589,15.4315356 43.6421075,13.7454545 37.3333333,13.7454545 C28.4496683,13.7454545 22.3849255,17.0257764 18.8174078,22.4907331 C16.6760983,25.7709309 15.8470012,29.0335084 15.7222366,31.3108335 L15.7195408,40.4081166 C14.5078262,41.7207746 13.754386,43.2900007 13.754386,44.9849455 L13.754386,51.7693091 C13.754386,53.901047 14.7242321,55.8735163 16.3283244,57.1953017 C17.0480291,59.91113 18.27922,62.5100834 19.8783568,64.9589196 C20.7928989,66.3594025 21.7714062,67.6235542 22.7522775,68.7341933 C23.0253955,69.0434444 23.2727733,69.312231 23.4885614,69.538743 L23.4885614,74.9264727 C23.4885614,76.4694093 22.6462023,77.8886445 21.2926779,78.6258429 L8.0146355,86.9394213 C3.11425963,89.6050849 0,94.8476005 0,100.544073 L0,108 L31.4385965,108 L31.4385965,99.6761455 C31.4385965,94.6309196 34.1960324,89.9887793 38.6275916,87.5742284 L52.6529849,79.9296245 L56.1567778,78.0190629 Z M3.92982456,104.072727 L3.92982456,100.544073 C3.92982456,96.2849302 6.25835296,92.3651073 9.99876775,90.3272749 L23.2765926,82.0138151 C25.7906851,80.6486612 27.418386,77.9062558 27.418386,74.9264727 L27.418386,67.8739987 L26.7942045,67.291779 C26.5929793,67.1040815 26.207198,66.7112465 25.6986682,66.135439 C24.8375383,65.1603829 23.9740442,64.044819 23.1693852,62.8126053 C21.6659643,60.5103436 20.5512841,58.0815039 19.9804935,55.5969056 L19.801956,54.8197481 L19.1317916,54.387 C18.2348491,53.8078134 17.6842105,52.8296093 17.6842105,51.7693091 L17.6842105,44.9849455 C17.6842105,44.2831268 18.1658107,43.4361392 18.9995872,42.6852772 L19.6491228,42.1003343 L19.6491228,31.4181818 C19.6665101,31.1545265 19.7695745,30.4194868 20.0167123,29.4469753 C20.4342982,27.8037343 21.1139317,26.1604943 22.1087676,24.6365397 C24.9505482,20.2833145 29.7770686,17.6727273 37.3333333,17.6727273 C42.3298764,17.6727273 46.1470471,18.8517122 49.122807,20.8974405 L49.122807,30.1898042 C47.8739282,31.6050241 47.1578947,33.4188931 47.1578947,35.3454545 L47.1578947,43.2 C47.1578947,45.6081148 48.267955,47.8325456 50.101453,49.3063335 C50.2172025,49.7556112 50.3490373,50.2231523 50.5038696,50.7409674 C50.5566605,50.9177629 50.5566605,50.9177629 50.6097064,51.0895438 C50.8802626,51.9463309 51.0866537,52.551926 51.298499,53.1184404 C51.5898312,53.8967761 51.8529243,54.5355194 52.1454883,55.2016046 C52.2311589,55.3930622 52.2311589,55.3930622 52.2516468,55.4393259 C52.531739,56.0654945 52.8046452,56.6443373 53.0753711,57.1854376 L53.6184595,58.2709091 C54.433768,59.7414171 55.2668217,61.0887725 56.1017149,62.2964592 C56.4395061,62.7850797 56.7369579,63.1936045 56.9824561,63.5169689 L56.9824561,70.0134545 C56.9824561,71.9141401 55.9449315,73.6606439 54.274788,74.5714284 L48.9184321,77.4906781 C48.78557,77.5250024 48.6453037,77.5783304 48.4857251,77.6572105 C48.3384384,77.7628948 48.2144756,77.8518433 48.1095755,77.9326088 L36.7461761,84.1262809 C31.0518757,87.2288408 27.5087719,93.1936521 27.5087719,99.6761455 L27.5087719,104.072727 L3.92982456,104.072727 Z" id="Stroke-3650"></path>
                                                    <path d="M96.2807018,19.7468982 C96.513203,16.5719446 96.0165473,13.1635958 94.2146403,9.86016492 C90.8379461,3.66968103 83.8634697,0 72.7017544,0 C61.5409081,0 54.5666468,3.66967518 51.1896456,9.86009108 C49.3874207,13.1637682 48.8905539,16.572315 49.0968533,19.4438076 C49.1053851,19.5625619 49.122807,30.1898042 49.122807,30.1898042 C47.8739282,31.6050241 47.1578947,33.4188931 47.1578947,35.3454545 L47.1578947,43.2 C47.1578947,45.60727 48.2671763,47.830985 50.0995237,49.3047823 C50.8236116,52.1714166 51.9132437,54.9414413 53.2726808,57.5785469 C54.172876,59.3247914 55.1373818,60.9084913 56.1043893,62.30427 C56.4409688,62.7900888 56.7374919,63.1964333 56.9824561,63.5183501 L56.9824561,70.0134545 C56.9824561,71.9141401 55.9449315,73.6606439 54.274788,74.5714284 L36.7461151,84.1263141 C31.0518757,87.2288408 27.5087719,93.1936521 27.5087719,99.6761455 L27.5087719,108 L68.7719298,108 L68.7719298,104.072727 L31.4385965,104.072727 L31.4385965,99.6761455 C31.4385965,94.6309196 34.1960324,89.9887793 38.6275916,87.5742284 L56.1569024,78.0189949 C59.0893515,76.4198334 60.9122807,73.3512291 60.9122807,70.0134545 L60.9122807,62.1235822 L60.4547623,61.5767678 C60.2459732,61.3272284 59.8523494,60.8149047 59.3353832,60.0687157 C58.4611675,58.8068727 57.5844502,57.36732 56.7661703,55.7799789 C55.4349491,53.197608 54.3945715,50.4858655 53.7553844,47.7031468 L53.5769368,46.9262702 L52.907144,46.4934888 C51.7793622,45.7647813 51.0877193,44.5358337 51.0877193,43.2 L51.0877193,35.3454545 C51.0877193,34.2407531 51.5677655,33.2047197 52.4046879,32.4493693 L53.0526316,31.8645784 L53.0526316,19.6363636 C53.0329942,19.3586342 53.0253572,19.2846228 53.016588,19.162564 C52.8595269,16.9764217 53.2519377,14.284451 54.6400386,11.7399089 C57.2885637,6.88487027 62.909513,3.92727273 72.7017544,3.92727273 C82.4948461,3.92727273 88.1159486,6.88486442 90.7641667,11.7398351 C92.1519696,14.2840903 92.544202,16.9758239 92.3869954,19.1620263 C92.3782064,19.2842514 92.3508772,19.6363636 92.3508772,19.6363636 L92.3508772,31.8645784 L92.9988209,32.4493693 C93.8357433,33.2047197 94.3157895,34.2407531 94.3157895,35.3454545 L94.3157895,43.2 C94.3157895,44.9139894 93.1697888,46.4210849 91.5233727,46.9274489 L92.679294,50.6809875 C95.9540723,49.6738122 98.245614,46.6602254 98.245614,43.2 L98.245614,35.3454545 C98.245614,33.4188931 97.5295806,31.6050241 96.2807018,30.1898042 L96.2807018,19.7468982 Z" id="Stroke-3652"></path>
                                                </g>
                                            </g>
                                        </g>
                                    </g>
                                </g>
                            </g>
                        </g>
                    </g>
                </g>
            </g>
        </g>
    </g>
</svg>