<svg width="115px" height="149px" viewBox="0 0 115 149" version="1.1" xmlns="http://www.w3.org/2000/svg" xmlns:xlink="http://www.w3.org/1999/xlink">
    <!-- Generator: Sketch 41.2 (35397) - http://www.bohemiancoding.com/sketch -->
    <title>Group</title>
    <desc>Created with Sketch.</desc>
    <defs></defs>
    <g id="Pages" stroke="none" stroke-width="1" fill="none" fill-rule="evenodd">
        <g id="Florida-Marriage-Nane-Change" transform="translate(-654.000000, -1200.000000)">
            <g id="Group-4" transform="translate(-1.000000, 942.000000)">
                <g id="Green">
                    <g id="Group-2" transform="translate(154.000000, 248.000000)">
                        <g id="Group" transform="translate(501.000000, 9.000000)">
                            <g id="10-give-energy-hand-gesture-finger-interaction-outline" transform="translate(0.000000, 98.000000)" fill="#05315E">
                                <g id="10---Give-Energy--(hand,-gesture,-finger,-interaction,-outline)">
                                    <g id="Page-1">
                                        <g id="Icons">
                                            <g id="10---Give-Energy--(hand,-gesture,-finger,-interaction,-outline)">
                                                <path d="M68.6257449,12.9123383 C65.6243231,8.40884854 60.4277273,5.77777778 54.8528917,5.77777778 L47.375975,5.77777778 C43.361885,5.77777778 39.4868707,4.51665115 36.3934139,2.17336863 C33.4492086,-0.0567990765 29.6595481,-0.452354323 25.3231009,0.567559728 C22.5081063,1.22963458 19.5542926,2.46491249 16.5592106,4.10610609 C14.9719003,4.97589317 13.4721555,5.90591818 12.1028815,6.83675442 C11.6221895,7.16353021 11.1911852,7.46779038 10.8154075,7.74210212 C10.5855873,7.9098672 10.4223747,8.03263467 10.3313672,8.10296222 L9.58314167,8.68116599 L9.58314167,46.2222222 L38.3331417,46.2222222 C42.2553856,46.2222222 46.1754188,45.9243626 50.055955,45.3317665 L74.9004978,41.5355591 C75.7982789,41.5250111 76.6903694,41.4203191 77.5767217,41.2269913 C79.8862991,40.8930816 82.0660139,39.7611771 83.867604,38.0540784 L112.919117,15.3206973 C115.224015,13.4008336 115.669344,10.0714693 113.960188,7.67705563 C110.621845,3.00542663 107.22472,2.87837414 98.7744208,7.34338188 L82.0416947,17.6160047 C80.1414672,18.6269089 76.1452297,19.1946321 70.5675272,19.3307752 C70.3058945,19.3371613 70.0465879,19.3426598 69.7873683,19.3472976 C70.6548474,17.5410188 70.2365302,15.3287339 68.6257449,12.9123383 Z M81.4381659,35.0730805 L81.2905159,35.2012696 C80.0217023,36.4215723 78.5259767,37.2036837 77.0039539,37.4182312 C76.1245935,37.6057922 75.4371117,37.6845926 74.7498083,37.6845926 L74.461665,37.7064807 L49.4798317,41.5236659 C45.7899966,42.0871401 42.0624954,42.3703704 38.3331417,42.3703704 L13.416475,42.3703704 L13.416475,10.6064985 C13.6547193,10.4371044 13.9339889,10.2425036 14.2508733,10.0270848 C15.5243732,9.16135604 16.921743,8.29481603 18.3944833,7.48780909 C21.1112031,5.99914758 23.7614915,4.89080322 26.1967376,4.31804364 C29.5275677,3.53464648 32.1891917,3.81246011 34.0858884,5.24916421 C37.8549957,8.10424956 42.5419711,9.62962963 47.375975,9.62962963 L54.8528917,9.62962963 C59.1812353,9.62962963 63.1705472,11.6494446 65.4407676,15.0558016 C66.4884887,16.6275248 66.5667021,17.4075703 66.2277351,17.8411513 C65.8384403,18.3391077 64.7836544,18.7888002 63.2729986,19.0457464 C61.9470031,19.2712839 60.5114507,19.3239916 59.2728699,19.2765395 C59.1368861,19.2713297 58.875975,23.1111111 58.875975,23.1111111 C59.7127251,23.1111111 60.0238075,23.1159256 62.6795793,23.1639367 C66.1548337,23.2267626 68.3060236,23.2389632 70.6606157,23.1814912 C76.8287601,23.0309362 81.2350861,22.4049541 83.9408492,20.9599003 L100.666089,10.6912546 C107.513712,7.07760715 108.848288,7.12752033 110.845847,9.9228748 C111.3713,10.6589992 111.237071,11.7030455 110.536386,12.3031502 L81.4381659,35.0730805 Z" id="Stroke-1890"></path>
                                                <path d="M0,52 L13.4166667,52 L13.4166667,1.92592593 L0,1.92592593 L0,52 Z M3.83333333,5.77777778 L9.58333333,5.77777778 L9.58333333,48.1481481 L3.83333333,48.1481481 L3.83333333,5.77777778 Z" id="Stroke-1891"></path>
                                                <path d="M34.5,26.962963 C34.5,24.3499322 36.3836255,23.1111111 40.25,23.1111111 L58.8761667,23.1111111 L58.8761667,19.2592593 L40.25,19.2592593 C34.5224396,19.2592593 30.6666667,21.7951205 30.6666667,26.962963 L34.5,26.962963 Z" id="Stroke-1892"></path>
                                                <path d="M68.6257449,12.9123383 C65.6243231,8.40884854 60.4277273,5.77777778 54.8528917,5.77777778 L47.375975,5.77777778 C43.361885,5.77777778 39.4868707,4.51665115 36.3934139,2.17336863 C33.4492086,-0.0567990765 29.6595481,-0.452354323 25.3231009,0.567559728 C22.5081063,1.22963458 19.5542926,2.46491249 16.5592106,4.10610609 C14.9719003,4.97589317 13.4721555,5.90591818 12.1028815,6.83675442 C11.6221895,7.16353021 11.1911852,7.46779038 10.8154075,7.74210212 C10.5855873,7.9098672 10.4223747,8.03263467 10.3313672,8.10296222 L9.58314167,8.68116599 L9.58314167,46.2222222 L38.3331417,46.2222222 C42.2553856,46.2222222 46.1754188,45.9243626 50.055955,45.3317665 L74.9004978,41.5355591 C75.7982789,41.5250111 76.6903694,41.4203191 77.5767217,41.2269913 C79.8862991,40.8930816 82.0660139,39.7611771 83.867604,38.0540784 L112.919117,15.3206973 C115.224015,13.4008336 115.669344,10.0714693 113.960188,7.67705563 C110.621845,3.00542663 107.22472,2.87837414 98.7744208,7.34338188 L82.0416947,17.6160047 C80.1414672,18.6269089 76.1452297,19.1946321 70.5675272,19.3307752 C70.3058945,19.3371613 70.0465879,19.3426598 69.7873683,19.3472976 C70.6548474,17.5410188 70.2365302,15.3287339 68.6257449,12.9123383 Z M81.4381659,35.0730805 L81.2905159,35.2012696 C80.0217023,36.4215723 78.5259767,37.2036837 77.0039539,37.4182312 C76.1245935,37.6057922 75.4371117,37.6845926 74.7498083,37.6845926 L74.461665,37.7064807 L49.4798317,41.5236659 C45.7899966,42.0871401 42.0624954,42.3703704 38.3331417,42.3703704 L13.416475,42.3703704 L13.416475,10.6064985 C13.6547193,10.4371044 13.9339889,10.2425036 14.2508733,10.0270848 C15.5243732,9.16135604 16.921743,8.29481603 18.3944833,7.48780909 C21.1112031,5.99914758 23.7614915,4.89080322 26.1967376,4.31804364 C29.5275677,3.53464648 32.1891917,3.81246011 34.0858884,5.24916421 C37.8549957,8.10424956 42.5419711,9.62962963 47.375975,9.62962963 L54.8528917,9.62962963 C59.1812353,9.62962963 63.1705472,11.6494446 65.4407676,15.0558016 C66.4884887,16.6275248 66.5667021,17.4075703 66.2277351,17.8411513 C65.8384403,18.3391077 64.7836544,18.7888002 63.2729986,19.0457464 C61.9470031,19.2712839 60.5114507,19.3239916 59.2728699,19.2765395 C59.1368861,19.2713297 58.875975,23.1111111 58.875975,23.1111111 C59.7127251,23.1111111 60.0238075,23.1159256 62.6795793,23.1639367 C66.1548337,23.2267626 68.3060236,23.2389632 70.6606157,23.1814912 C76.8287601,23.0309362 81.2350861,22.4049541 83.9408492,20.9599003 L100.666089,10.6912546 C107.513712,7.07760715 108.848288,7.12752033 110.845847,9.9228748 C111.3713,10.6589992 111.237071,11.7030455 110.536386,12.3031502 L81.4381659,35.0730805 Z" id="Stroke-1915"></path>
                                            </g>
                                        </g>
                                    </g>
                                </g>
                            </g>
                            <g id="11-success-file-document-paper-write-note-outline" transform="translate(18.000000, 0.000000)">
                                <g transform="translate(0.942875, 0.680469)" id="11--Success-File--(document,-paper,-write,-note,-outline)">
                                    <g>
                                        <g id="Page-1">
                                            <g id="Icons">
                                                <g id="11--Success-File--(document,-paper,-write,-note,-outline)">
                                                    <path d="M54.1068412,6.61384608 C54.1068412,3.33447624 51.4485233,0.702597418 48.1682855,0.702597418 L36.291174,0.702597418 C33.0109361,0.702597418 30.3526182,3.33447624 30.3526182,6.61384608 L30.3526182,8.62121585 L24.4140625,8.62121585 C22.2312819,8.62121585 20.4550253,10.3632447 20.4550253,12.5528099 L20.4550253,26.4381073 C20.4550253,28.6369937 22.2089366,30.4251317 24.4140625,30.4251317 L60.0192245,30.397416 C62.216419,30.3974166 64.0044341,28.6433847 64.0044341,26.4381073 L64.0044341,12.5528099 C64.0044341,10.3632447 62.2281775,8.62121585 60.045397,8.62121585 L54.1068412,8.62121585 L54.1068412,6.61384608 Z M60.045397,12.5805251 L60.045397,26.4381073 C60.045397,26.4394706 24.4125217,26.4658231 24.4125217,26.4658231 C24.4126994,26.4658225 24.4140625,12.5805251 24.4140625,12.5805251 L34.3116554,12.5805251 L34.3116554,6.61384608 C34.3116554,5.53011185 35.1885823,4.66190664 36.291174,4.66190664 L48.1682855,4.66190664 C49.2708771,4.66190664 50.1478041,5.53011185 50.1478041,6.61384608 L50.1478041,12.5805251 L60.045397,12.5805251 Z" id="Stroke-83" fill="#05315E"></path>
                                                    <circle id="Oval" fill="#FFFFFF" cx="43" cy="72" r="25"></circle>
                                                    <path d="M83.7996199,103.324534 L83.7996199,24.4584527 C83.7996199,18.9920626 79.3680415,14.5601797 73.902027,14.5601797 L60.045397,14.5601797 L60.045397,26.4381073 L24.4422145,26.4658231 C24.4265077,26.4658225 24.4140625,14.5601797 24.4140625,14.5601797 L10.5574324,14.5601797 C5.09141796,14.5601797 0.659839527,18.9920626 0.659839527,24.4584527 L0.659839527,103.846983 L2.05712531,100.819531 L4.61887669,100.145386 L4.61887669,24.4584527 C4.61887669,21.1787287 7.27793381,18.5194889 10.5574324,18.5194889 L20.4550253,18.5194889 L20.4550253,26.4381073 C20.4550253,28.6406548 22.2405952,30.4251317 24.4437553,30.4251317 L60.0489173,30.397416 C62.2335643,30.3974166 64.0044341,28.6239755 64.0044341,26.4381073 L64.0044341,18.5194889 L73.902027,18.5194889 C77.1815256,18.5194889 79.8405828,21.1787287 79.8405828,24.4584527 L79.8405828,105.963892 L83.7996199,103.324534 L83.7996199,103.324534 Z" id="Combined-Shape" fill="#05315E"></path>
                                                    <path d="M67.9634713,71.9701633 C67.9634713,57.7576592 56.4412573,46.2346534 42.2297297,46.2346534 C28.0182022,46.2346534 16.4959882,57.7576592 16.4959882,71.9701633 C16.4959882,86.1826675 28.0182022,97.7056733 42.2297297,97.7056733 C56.4412573,97.7056733 67.9634713,86.1826675 67.9634713,71.9701633 Z M64.0044341,71.9701633 C64.0044341,83.9960014 54.2547414,93.746364 42.2297297,93.746364 C30.204718,93.746364 20.4550253,83.9960014 20.4550253,71.9701633 C20.4550253,59.9443253 30.204718,50.1939626 42.2297297,50.1939626 C54.2547414,50.1939626 64.0044341,59.9443253 64.0044341,71.9701633 Z" id="Stroke-85" fill="#05315E"></path>
                                                    <polygon id="Stroke-86" fill="#50E3C2" points="33.7318678 72.5499908 30.9324058 75.3496451 40.6432226 85.0611292 53.8247458 63.0904142 50.4298995 61.0533664 39.8571997 78.6757435"></polygon>
                                                </g>
                                            </g>
                                        </g>
                                    </g>
                                </g>
                            </g>
                        </g>
                    </g>
                </g>
            </g>
        </g>
    </g>
</svg>